<svg width="500" height="500" viewBox="0 0 500 500" fill="none" xmlns="http://www.w3.org/2000/svg">
<path d="M420.638 89.3333C420.759 84.3658 421.693 77.8142 419.084 77.5606C418.124 77.5135 417.352 78.246 417.287 79.1514C417.205 82.5448 417.205 85.9399 417.287 89.3333C417.45 91.581 420.519 90.9762 420.638 89.3333Z" fill="#B1AFFF"/>
<path d="M437.372 81.001C434.419 77.9268 431.034 73.5137 429.139 73.3793C427.63 73.3323 426.941 75.1986 427.818 76.1898C430.163 78.6323 432.559 81.0279 435.001 83.3713C436.46 84.6615 438.501 82.2777 437.372 81.001Z" fill="#B1AFFF"/>
<path d="M410.109 76.1915C410.994 75.1919 410.226 73.4432 408.926 73.3776C408.483 73.3726 408.068 73.5255 407.737 73.8211C404.579 76.855 399.972 80.2652 400.115 82.2592C400.421 86.5295 406.084 80.3845 410.109 76.1915Z" fill="#B1AFFF"/>
<path d="M443.332 66.6413C445.266 66.5002 445.034 63.4125 443.332 63.2882C439.939 63.2059 436.544 63.2059 433.15 63.2899C432.052 63.3705 431.289 64.575 431.664 65.5611C432.463 67.6677 438.242 66.7639 443.332 66.6413Z" fill="#B1AFFF"/>
<path d="M404.777 66.6413C406.71 66.5002 406.477 63.4125 404.777 63.2882C399.673 63.1656 392.808 62.4096 393.004 65.0874C393.196 67.7382 399.356 66.7723 404.777 66.6413Z" fill="#B1AFFF"/>
<path d="M437.372 48.9268C438.255 47.9273 437.489 46.1785 436.189 46.113C434.42 46.0945 430.881 50.5496 427.818 53.7363C426.903 54.7728 427.739 56.5115 429.001 56.5502C430.682 56.6022 434.207 52.2228 437.372 48.9268Z" fill="#B1AFFF"/>
<path d="M410.109 53.7363C407.156 50.6621 403.771 46.249 401.876 46.1147C397.036 45.9651 403.574 52.1135 407.738 56.1067C409.197 57.3968 411.238 55.013 410.109 53.7363Z" fill="#B1AFFF"/>
<path d="M420.638 50.7747C420.759 45.8089 421.687 39.2557 419.084 39.002C418.124 38.9566 417.352 39.6907 417.287 40.5928C417.205 43.9862 417.205 47.3813 417.287 50.7747C417.458 53.1316 420.522 52.3756 420.638 50.7747Z" fill="#B1AFFF"/>
<path d="M420.638 295.333C420.759 290.366 421.693 283.814 419.084 283.561C418.124 283.514 417.352 284.246 417.287 285.151C417.205 288.545 417.205 291.94 417.287 295.333C417.45 297.581 420.519 296.976 420.638 295.333Z" fill="#B1AFFF"/>
<path d="M437.372 287.001C434.419 283.927 431.034 279.514 429.139 279.379C427.63 279.332 426.941 281.199 427.818 282.19C430.163 284.632 432.559 287.028 435.001 289.371C436.46 290.661 438.501 288.278 437.372 287.001Z" fill="#B1AFFF"/>
<path d="M410.109 282.191C410.994 281.192 410.226 279.443 408.926 279.378C408.483 279.373 408.068 279.525 407.737 279.821C404.579 282.855 399.972 286.265 400.115 288.259C400.421 292.53 406.084 286.384 410.109 282.191Z" fill="#B1AFFF"/>
<path d="M443.332 272.641C445.266 272.5 445.034 269.413 443.332 269.288C439.939 269.206 436.544 269.206 433.15 269.29C432.052 269.371 431.289 270.575 431.664 271.561C432.463 273.668 438.242 272.764 443.332 272.641Z" fill="#B1AFFF"/>
<path d="M404.777 272.641C406.71 272.5 406.477 269.413 404.777 269.288C399.673 269.166 392.808 268.41 393.004 271.087C393.196 273.738 399.356 272.772 404.777 272.641Z" fill="#B1AFFF"/>
<path d="M437.372 254.927C438.255 253.927 437.489 252.179 436.189 252.113C434.42 252.095 430.881 256.55 427.818 259.736C426.903 260.773 427.739 262.512 429.001 262.55C430.682 262.602 434.207 258.223 437.372 254.927Z" fill="#B1AFFF"/>
<path d="M410.109 259.736C407.156 256.662 403.771 252.249 401.876 252.115C397.036 251.965 403.574 258.114 407.738 262.107C409.197 263.397 411.238 261.013 410.109 259.736Z" fill="#B1AFFF"/>
<path d="M420.638 256.775C420.759 251.809 421.687 245.256 419.084 245.002C418.124 244.957 417.352 245.691 417.287 246.593C417.205 249.986 417.205 253.381 417.287 256.775C417.458 259.132 420.522 258.376 420.638 256.775Z" fill="#B1AFFF"/>
<path d="M258.638 269.333C258.759 264.366 259.693 257.814 257.084 257.561C256.124 257.514 255.352 258.246 255.287 259.151C255.205 262.545 255.205 265.94 255.287 269.333C255.45 271.581 258.519 270.976 258.638 269.333Z" fill="#B1AFFF"/>
<path d="M275.372 261.001C272.419 257.927 269.034 253.514 267.139 253.379C265.63 253.332 264.941 255.199 265.818 256.19C268.163 258.632 270.559 261.028 273.001 263.371C274.46 264.661 276.501 262.278 275.372 261.001Z" fill="#B1AFFF"/>
<path d="M248.109 256.191C248.994 255.192 248.226 253.443 246.926 253.378C246.483 253.373 246.068 253.525 245.737 253.821C242.579 256.855 237.972 260.265 238.115 262.259C238.421 266.53 244.084 260.384 248.109 256.191Z" fill="#B1AFFF"/>
<path d="M281.332 246.641C283.266 246.5 283.034 243.413 281.332 243.288C277.939 243.206 274.544 243.206 271.15 243.29C270.052 243.371 269.289 244.575 269.664 245.561C270.463 247.668 276.242 246.764 281.332 246.641Z" fill="#B1AFFF"/>
<path d="M242.777 246.641C244.71 246.5 244.477 243.413 242.777 243.288C237.673 243.166 230.808 242.41 231.004 245.087C231.196 247.738 237.356 246.772 242.777 246.641Z" fill="#B1AFFF"/>
<path d="M275.372 228.927C276.255 227.927 275.489 226.179 274.189 226.113C272.42 226.095 268.881 230.55 265.818 233.736C264.903 234.773 265.739 236.512 267.001 236.55C268.682 236.602 272.207 232.223 275.372 228.927Z" fill="#B1AFFF"/>
<path d="M248.109 233.736C245.156 230.662 241.771 226.249 239.876 226.115C235.036 225.965 241.574 232.114 245.738 236.107C247.197 237.397 249.238 235.013 248.109 233.736Z" fill="#B1AFFF"/>
<path d="M258.638 230.775C258.759 225.809 259.687 219.256 257.084 219.002C256.124 218.957 255.352 219.691 255.287 220.593C255.205 223.986 255.205 227.381 255.287 230.775C255.458 233.132 258.522 232.376 258.638 230.775Z" fill="#B1AFFF"/>
<path d="M334.638 387.333C334.759 382.366 335.693 375.814 333.084 375.561C332.124 375.514 331.352 376.246 331.287 377.151C331.205 380.545 331.205 383.94 331.287 387.333C331.45 389.581 334.519 388.976 334.638 387.333Z" fill="#B1AFFF"/>
<path d="M351.372 379.001C348.419 375.927 345.034 371.514 343.139 371.379C341.63 371.332 340.941 373.199 341.818 374.19C344.163 376.632 346.559 379.028 349.001 381.371C350.46 382.661 352.501 380.278 351.372 379.001Z" fill="#B1AFFF"/>
<path d="M324.109 374.191C324.994 373.192 324.226 371.443 322.926 371.378C322.483 371.373 322.068 371.525 321.737 371.821C318.579 374.855 313.972 378.265 314.115 380.259C314.421 384.53 320.084 378.384 324.109 374.191Z" fill="#B1AFFF"/>
<path d="M357.332 364.641C359.266 364.5 359.034 361.413 357.332 361.288C353.939 361.206 350.544 361.206 347.15 361.29C346.052 361.371 345.289 362.575 345.664 363.561C346.463 365.668 352.242 364.764 357.332 364.641Z" fill="#B1AFFF"/>
<path d="M318.777 364.641C320.71 364.5 320.477 361.413 318.777 361.288C313.673 361.166 306.808 360.41 307.004 363.087C307.196 365.738 313.356 364.772 318.777 364.641Z" fill="#B1AFFF"/>
<path d="M351.372 346.927C352.255 345.927 351.489 344.179 350.189 344.113C348.42 344.095 344.881 348.55 341.818 351.736C340.903 352.773 341.739 354.512 343.001 354.55C344.682 354.602 348.207 350.223 351.372 346.927Z" fill="#B1AFFF"/>
<path d="M324.109 351.736C321.156 348.662 317.771 344.249 315.876 344.115C311.036 343.965 317.574 350.114 321.738 354.107C323.197 355.397 325.238 353.013 324.109 351.736Z" fill="#B1AFFF"/>
<path d="M334.638 348.775C334.759 343.809 335.687 337.256 333.084 337.002C332.124 336.957 331.352 337.691 331.287 338.593C331.205 341.986 331.205 345.381 331.287 348.775C331.458 351.132 334.522 350.376 334.638 348.775Z" fill="#B1AFFF"/>
<path d="M277.638 81.3333C277.759 76.3658 278.693 69.8142 276.084 69.5606C275.124 69.5135 274.352 70.246 274.287 71.1514C274.205 74.5448 274.205 77.9399 274.287 81.3333C274.45 83.581 277.519 82.9762 277.638 81.3333Z" fill="#B1AFFF"/>
<path d="M294.372 73.001C291.419 69.9268 288.034 65.5137 286.139 65.3793C284.63 65.3323 283.941 67.1986 284.818 68.1898C287.163 70.6323 289.559 73.0279 292.001 75.3713C293.46 76.6615 295.501 74.2777 294.372 73.001Z" fill="#B1AFFF"/>
<path d="M267.109 68.1915C267.994 67.1919 267.226 65.4432 265.926 65.3776C265.483 65.3726 265.068 65.5255 264.737 65.8211C261.579 68.855 256.972 72.2652 257.115 74.2592C257.421 78.5295 263.084 72.3845 267.109 68.1915Z" fill="#B1AFFF"/>
<path d="M300.332 58.6413C302.266 58.5002 302.034 55.4125 300.332 55.2882C296.939 55.2059 293.544 55.2059 290.15 55.2899C289.052 55.3705 288.289 56.575 288.664 57.5611C289.463 59.6677 295.242 58.7639 300.332 58.6413Z" fill="#B1AFFF"/>
<path d="M261.777 58.6413C263.71 58.5002 263.477 55.4125 261.777 55.2882C256.673 55.1656 249.808 54.4096 250.004 57.0874C250.196 59.7382 256.356 58.7723 261.777 58.6413Z" fill="#B1AFFF"/>
<path d="M294.372 40.9268C295.255 39.9273 294.489 38.1785 293.189 38.113C291.42 38.0945 287.881 42.5496 284.818 45.7363C283.903 46.7728 284.739 48.5115 286.001 48.5502C287.682 48.6022 291.207 44.2228 294.372 40.9268Z" fill="#B1AFFF"/>
<path d="M267.109 45.7363C264.156 42.6621 260.771 38.249 258.876 38.1147C254.036 37.9651 260.574 44.1135 264.738 48.1067C266.197 49.3968 268.238 47.013 267.109 45.7363Z" fill="#B1AFFF"/>
<path d="M277.638 42.7747C277.759 37.8089 278.687 31.2557 276.084 31.002C275.124 30.9566 274.352 31.6907 274.287 32.5928C274.205 35.9862 274.205 39.3813 274.287 42.7747C274.458 45.1316 277.522 44.3756 277.638 42.7747Z" fill="#B1AFFF"/>
<path d="M111.638 107.333C111.759 102.366 112.693 95.8142 110.084 95.5606C109.124 95.5135 108.352 96.246 108.287 97.1514C108.205 100.545 108.205 103.94 108.287 107.333C108.45 109.581 111.519 108.976 111.638 107.333Z" fill="#B1AFFF"/>
<path d="M128.372 99.001C125.419 95.9268 122.034 91.5137 120.139 91.3793C118.63 91.3323 117.941 93.1986 118.818 94.1898C121.163 96.6323 123.559 99.0279 126.001 101.371C127.46 102.661 129.501 100.278 128.372 99.001Z" fill="#B1AFFF"/>
<path d="M101.109 94.1915C101.994 93.1919 101.226 91.4432 99.9261 91.3776C99.4827 91.3726 99.0677 91.5255 98.7368 91.8211C95.5786 94.855 90.9723 98.2652 91.1151 100.259C91.4209 104.53 97.0838 98.3845 101.109 94.1915Z" fill="#B1AFFF"/>
<path d="M134.332 84.6413C136.266 84.5002 136.034 81.4125 134.332 81.2882C130.939 81.2059 127.544 81.2059 124.15 81.2899C123.052 81.3705 122.289 82.575 122.664 83.5611C123.463 85.6677 129.242 84.7639 134.332 84.6413Z" fill="#B1AFFF"/>
<path d="M95.7768 84.6413C97.7104 84.5002 97.4769 81.4125 95.7768 81.2882C90.6733 81.1656 83.8076 80.4096 84.0041 83.0874C84.1956 85.7382 90.3558 84.7723 95.7768 84.6413Z" fill="#B1AFFF"/>
<path d="M128.372 66.9268C129.255 65.9273 128.489 64.1785 127.189 64.113C125.42 64.0945 121.881 68.5496 118.818 71.7363C117.903 72.7728 118.739 74.5115 120.001 74.5502C121.682 74.6022 125.207 70.2228 128.372 66.9268Z" fill="#B1AFFF"/>
<path d="M101.109 71.7363C98.1555 68.6621 94.7706 64.249 92.8756 64.1147C88.0359 63.9651 94.574 70.1135 98.7385 74.1067C100.197 75.3968 102.238 73.013 101.109 71.7363Z" fill="#B1AFFF"/>
<path d="M111.638 68.7747C111.759 63.8089 112.687 57.2557 110.084 57.002C109.124 56.9566 108.352 57.6907 108.287 58.5928C108.205 61.9862 108.205 65.3813 108.287 68.7747C108.458 71.1316 111.522 70.3756 111.638 68.7747Z" fill="#B1AFFF"/>
<path d="M225.638 471.333C225.759 466.366 226.693 459.814 224.084 459.561C223.124 459.514 222.352 460.246 222.287 461.151C222.205 464.545 222.205 467.94 222.287 471.333C222.45 473.581 225.519 472.976 225.638 471.333Z" fill="#B1AFFF"/>
<path d="M242.372 463.001C239.419 459.927 236.034 455.514 234.139 455.379C232.63 455.332 231.941 457.199 232.818 458.19C235.163 460.632 237.559 463.028 240.001 465.371C241.46 466.661 243.501 464.278 242.372 463.001Z" fill="#B1AFFF"/>
<path d="M215.109 458.191C215.994 457.192 215.226 455.443 213.926 455.378C213.483 455.373 213.068 455.525 212.737 455.821C209.579 458.855 204.972 462.265 205.115 464.259C205.421 468.53 211.084 462.384 215.109 458.191Z" fill="#B1AFFF"/>
<path d="M248.332 448.641C250.266 448.5 250.034 445.413 248.332 445.288C244.939 445.206 241.544 445.206 238.15 445.29C237.052 445.371 236.289 446.575 236.664 447.561C237.463 449.668 243.242 448.764 248.332 448.641Z" fill="#B1AFFF"/>
<path d="M209.777 448.641C211.71 448.5 211.477 445.413 209.777 445.288C204.673 445.166 197.808 444.41 198.004 447.087C198.196 449.738 204.356 448.772 209.777 448.641Z" fill="#B1AFFF"/>
<path d="M242.372 430.927C243.255 429.927 242.489 428.179 241.189 428.113C239.42 428.095 235.881 432.55 232.818 435.736C231.903 436.773 232.739 438.512 234.001 438.55C235.682 438.602 239.207 434.223 242.372 430.927Z" fill="#B1AFFF"/>
<path d="M215.109 435.736C212.156 432.662 208.771 428.249 206.876 428.115C202.036 427.965 208.574 434.114 212.738 438.107C214.197 439.397 216.238 437.013 215.109 435.736Z" fill="#B1AFFF"/>
<path d="M225.638 432.775C225.759 427.809 226.687 421.256 224.084 421.002C223.124 420.957 222.352 421.691 222.287 422.593C222.205 425.986 222.205 429.381 222.287 432.775C222.458 435.132 225.522 434.376 225.638 432.775Z" fill="#B1AFFF"/>
<path d="M420.638 471.333C420.759 466.366 421.693 459.814 419.084 459.561C418.124 459.514 417.352 460.246 417.287 461.151C417.205 464.545 417.205 467.94 417.287 471.333C417.45 473.581 420.519 472.976 420.638 471.333Z" fill="#B1AFFF"/>
<path d="M437.372 463.001C434.419 459.927 431.034 455.514 429.139 455.379C427.63 455.332 426.941 457.199 427.818 458.19C430.163 460.632 432.559 463.028 435.001 465.371C436.46 466.661 438.501 464.278 437.372 463.001Z" fill="#B1AFFF"/>
<path d="M410.109 458.191C410.994 457.192 410.226 455.443 408.926 455.378C408.483 455.373 408.068 455.525 407.737 455.821C404.579 458.855 399.972 462.265 400.115 464.259C400.421 468.53 406.084 462.384 410.109 458.191Z" fill="#B1AFFF"/>
<path d="M443.332 448.641C445.266 448.5 445.034 445.413 443.332 445.288C439.939 445.206 436.544 445.206 433.15 445.29C432.052 445.371 431.289 446.575 431.664 447.561C432.463 449.668 438.242 448.764 443.332 448.641Z" fill="#B1AFFF"/>
<path d="M404.777 448.641C406.71 448.5 406.477 445.413 404.777 445.288C399.673 445.166 392.808 444.41 393.004 447.087C393.196 449.738 399.356 448.772 404.777 448.641Z" fill="#B1AFFF"/>
<path d="M437.372 430.927C438.255 429.927 437.489 428.179 436.189 428.113C434.42 428.095 430.881 432.55 427.818 435.736C426.903 436.773 427.739 438.512 429.001 438.55C430.682 438.602 434.207 434.223 437.372 430.927Z" fill="#B1AFFF"/>
<path d="M410.109 435.736C407.156 432.662 403.771 428.249 401.876 428.115C397.036 427.965 403.574 434.114 407.738 438.107C409.197 439.397 411.238 437.013 410.109 435.736Z" fill="#B1AFFF"/>
<path d="M420.638 432.775C420.759 427.809 421.687 421.256 419.084 421.002C418.124 420.957 417.352 421.691 417.287 422.593C417.205 425.986 417.205 429.381 417.287 432.775C417.458 435.132 420.522 434.376 420.638 432.775Z" fill="#B1AFFF"/>
<path d="M85.6384 458.333C85.7593 453.366 86.6933 446.814 84.0845 446.561C83.1236 446.514 82.3525 447.246 82.287 448.151C82.2047 451.545 82.2047 454.94 82.287 458.333C82.4499 460.581 85.5191 459.976 85.6384 458.333Z" fill="#B1AFFF"/>
<path d="M102.372 450.001C99.4185 446.927 96.0335 442.514 94.1386 442.379C92.6301 442.332 91.9413 444.199 92.8182 445.19C95.1634 447.632 97.5589 450.028 100.001 452.371C101.46 453.661 103.501 451.278 102.372 450.001Z" fill="#B1AFFF"/>
<path d="M75.1088 445.191C75.9941 444.192 75.2264 442.443 73.9261 442.378C73.4827 442.373 73.0677 442.525 72.7368 442.821C69.5786 445.855 64.9723 449.265 65.1151 451.259C65.4209 455.53 71.0838 449.384 75.1088 445.191Z" fill="#B1AFFF"/>
<path d="M108.332 435.641C110.266 435.5 110.034 432.413 108.332 432.288C104.939 432.206 101.544 432.206 98.1502 432.29C97.0516 432.371 96.2889 433.575 96.6635 434.561C97.4631 436.668 103.242 435.764 108.332 435.641Z" fill="#B1AFFF"/>
<path d="M69.7768 435.641C71.7104 435.5 71.4769 432.413 69.7768 432.288C64.6733 432.166 57.8076 431.41 58.0041 434.087C58.1956 436.738 64.3558 435.772 69.7768 435.641Z" fill="#B1AFFF"/>
<path d="M102.372 417.927C103.255 416.927 102.489 415.179 101.189 415.113C99.4202 415.095 95.8807 419.55 92.8182 422.736C91.9027 423.773 92.7393 425.512 94.0009 425.55C95.6824 425.602 99.2068 421.223 102.372 417.927Z" fill="#B1AFFF"/>
<path d="M75.1088 422.736C72.1555 419.662 68.7706 415.249 66.8756 415.115C62.0359 414.965 68.574 421.114 72.7385 425.107C74.1966 426.397 76.2377 424.013 75.1088 422.736Z" fill="#B1AFFF"/>
<path d="M85.6384 419.775C85.7593 414.809 86.6866 408.256 84.0845 408.002C83.1236 407.957 82.3525 408.691 82.287 409.593C82.2047 412.986 82.2047 416.381 82.287 419.775C82.4583 422.132 85.5225 421.376 85.6384 419.775Z" fill="#B1AFFF"/>
<path d="M59.6384 248.333C59.7593 243.366 60.6933 236.814 58.0845 236.561C57.1236 236.514 56.3525 237.246 56.287 238.151C56.2047 241.545 56.2047 244.94 56.287 248.333C56.4499 250.581 59.5191 249.976 59.6384 248.333Z" fill="#B1AFFF"/>
<path d="M76.3718 240.001C73.4185 236.927 70.0335 232.514 68.1386 232.379C66.6301 232.332 65.9413 234.199 66.8182 235.19C69.1634 237.632 71.5589 240.028 74.0014 242.371C75.4596 243.661 77.5007 241.278 76.3718 240.001Z" fill="#B1AFFF"/>
<path d="M49.1088 235.191C49.9941 234.192 49.2264 232.443 47.9261 232.378C47.4827 232.373 47.0677 232.525 46.7368 232.821C43.5786 235.855 38.9723 239.265 39.1151 241.259C39.4209 245.53 45.0838 239.384 49.1088 235.191Z" fill="#B1AFFF"/>
<path d="M82.332 225.641C84.2656 225.5 84.0338 222.413 82.332 222.288C78.9387 222.206 75.5436 222.206 72.1502 222.29C71.0516 222.371 70.2889 223.575 70.6635 224.561C71.4631 226.668 77.242 225.764 82.332 225.641Z" fill="#B1AFFF"/>
<path d="M43.7768 225.641C45.7104 225.5 45.4769 222.413 43.7768 222.288C38.6733 222.166 31.8076 221.41 32.0041 224.087C32.1956 226.738 38.3558 225.772 43.7768 225.641Z" fill="#B1AFFF"/>
<path d="M76.3718 207.927C77.2554 206.927 76.4894 205.179 75.1891 205.113C73.4202 205.095 69.8807 209.55 66.8182 212.736C65.9027 213.773 66.7393 215.512 68.0009 215.55C69.6824 215.602 73.2068 211.223 76.3718 207.927Z" fill="#B1AFFF"/>
<path d="M49.1088 212.736C46.1555 209.662 42.7706 205.249 40.8756 205.115C36.0359 204.965 42.574 211.114 46.7385 215.107C48.1966 216.397 50.2377 214.013 49.1088 212.736Z" fill="#B1AFFF"/>
<path d="M59.6384 209.775C59.7593 204.809 60.6866 198.256 58.0845 198.002C57.1236 197.957 56.3525 198.691 56.287 199.593C56.2047 202.986 56.2047 206.381 56.287 209.775C56.4583 212.132 59.5225 211.376 59.6384 209.775Z" fill="#B1AFFF"/>
</svg>
