<?xml version="1.0" standalone="no"?>
<svg version="1.1" id="Layer_1" xmlns="http://www.w3.org/2000/svg" xmlns:xlink="http://www.w3.org/1999/xlink" x="0px" y="0px" viewBox="0 0 595.28 595.28" enable-background="new 0 0 595.28 595.28" xml:space="preserve">
<path id="color_x5F_11" fill="#143441" d="M483.419,253.329l-19.287,25.256V441.5c-0.614-3.137-1.549-6.402-2.932-9.618v-187.99
	l-20.961-28.958c-0.433-0.596-0.229-1.385,0.456-1.765c0.687-0.376,1.59-0.2,2.022,0.4l18.484,25.536v-32.896
	c0-0.706,0.657-1.279,1.466-1.279s1.466,0.573,1.466,1.279v67.764l16.848-22.062c0.448-0.586,1.355-0.743,2.033-0.356
	C483.686,251.946,483.867,252.739,483.419,253.329z M255.692,197.034c-0.496,0-0.98-0.052-1.452-0.136
	c0.632,1.762,2.311,3.024,4.29,3.024s3.659-1.263,4.29-3.024c-0.472,0.085-0.955,0.136-1.452,0.136H255.692z"></path>
<path id="color_x5F_10" fill="#c8ffd4" d="M511.194,173.039c-3.258,32.969-24.76,45.473-16.289,64.8
	c8.47,19.326,14.986,23.305,8.47,53.431c-6.515,30.126-22.153,18.189-20.198,46.61c1.954,28.421-18.245,25.011-18.245,25.011
	c-0.292-0.108-0.52-0.209-0.801-0.316v-83.99l19.288-25.257c0.449-0.59,0.267-1.382-0.407-1.775
	c-0.677-0.386-1.584-0.23-2.033,0.357l-16.848,22.062v-67.764c0-0.706-0.656-1.279-1.466-1.279c-0.809,0-1.466,0.573-1.466,1.279
	v32.896l-18.484-25.536c-0.432-0.599-1.334-0.776-2.022-0.399c-0.685,0.38-0.89,1.169-0.456,1.765l20.961,28.959v117.523
	c-16.682-7.069-9.268-11.463-18.42-17.851c-9.773-6.821-14.986-17.053-13.032-28.421c1.955-11.369,1.955-19.895-10.425-42.631
	c-12.379-22.737,7.168-32.968,11.077-55.705c3.91-22.737-16.941-26.147-18.244-62.526c-1.303-36.379,16.29-26.716,22.154-54
	s6.515-54,28.017-50.589c21.501,3.411-3.91,40.358,25.737,57.41C517.709,124.156,514.452,140.071,511.194,173.039z M268.716,191.626
	h-20.371c-0.977,0-1.77,0.792-1.77,1.77v0c0,0.977,0.792,1.77,1.77,1.77h20.371c0.977,0,1.77-0.792,1.77-1.77v0
	C270.485,192.418,269.693,191.626,268.716,191.626z M268.716,180.809h-20.371c-0.977,0-1.77,0.792-1.77,1.77
	c0,0.977,0.792,1.77,1.77,1.77h20.371c0.977,0,1.77-0.792,1.77-1.77C270.485,181.602,269.693,180.809,268.716,180.809z
	 M268.716,186.354h-20.371c-0.977,0-1.77,0.792-1.77,1.77c0,0.977,0.792,1.77,1.77,1.77h20.371c0.977,0,1.77-0.792,1.77-1.77
	C270.485,187.147,269.693,186.354,268.716,186.354z"></path>
<path id="color_x5F_9" fill="#7D8E9E" d="M268.716,184.349c0.296,0,0.571-0.08,0.816-0.208v2.422
	c-0.245-0.128-0.52-0.208-0.816-0.208h-20.371c-0.296,0-0.571,0.08-0.816,0.208v-2.422c0.245,0.128,0.52,0.208,0.816,0.208H268.716z
	 M267.989,178.843h-19.385c-0.37,0-0.73-0.05-1.074-0.144v2.318c0.245-0.128,0.52-0.208,0.816-0.208h20.371
	c0.296,0,0.571,0.08,0.816,0.208v-2.48C269.052,178.733,268.531,178.843,267.989,178.843z M255.692,197.034h5.678
	c1.975,0,3.785-0.702,5.197-1.869h-16.072C251.906,196.332,253.717,197.034,255.692,197.034z M248.345,189.894
	c-0.279,0-0.539-0.07-0.773-0.185c0.069,0.679,0.23,1.33,0.456,1.949c0.103-0.019,0.209-0.032,0.318-0.032h20.371
	c0.109,0,0.214,0.013,0.318,0.032c0.225-0.62,0.387-1.27,0.456-1.949c-0.235,0.115-0.495,0.185-0.773,0.185H248.345z"></path>
<path id="color_x5F_8" fill="#FFFFFF" d="M269.112,153.628c-1.121-1.121-2.512-1.29-3.249-1.29c-0.004,0-0.008,0-0.012,0
	c-3.257,0.008-4.554,2.895-4.785,4.42l-0.011,3.445h-5.05V156.9l-0.011-0.141c-0.231-1.525-1.528-4.412-4.785-4.42
	c-0.004,0-0.008,0-0.012,0c-0.737,0-2.128,0.17-3.249,1.29c-0.632,0.632-1.385,1.809-1.381,3.824
	c0.001,0.479,0.103,2.138,1.374,3.394c0.837,0.828,2.006,1.249,3.345,1.245h2.831v16.753h1.888v-16.753h5.05v16.753h1.888v-16.753
	h2.822c1.361-0.011,2.517-0.417,3.355-1.245c1.271-1.255,1.373-2.915,1.374-3.394C270.498,155.437,269.745,154.26,269.112,153.628z
	 M254.118,160.203h-2.841c-0.843-0.004-1.531-0.227-2.009-0.7c-0.598-0.591-0.812-1.476-0.813-2.054
	c-0.002-1.098,0.276-1.934,0.828-2.485c0.665-0.665,1.556-0.738,1.916-0.738c0.002,0,0.004,0,0.007,0
	c2.278,0.005,2.823,2.279,2.912,2.755V160.203z M267.793,159.503c-0.479,0.473-1.149,0.712-2.019,0.7h-2.831v-3.222
	c0.091-0.486,0.639-2.75,2.912-2.755c0.002,0,0.005,0,0.007,0c0.36,0,1.251,0.073,1.916,0.738c0.552,0.552,0.83,1.388,0.828,2.485
	C268.605,158.027,268.391,158.912,267.793,159.503z"></path>
<path id="color_x5F_7" fill="#FED883" d="M256.005,162.091h5.05v16.753h-5.05V162.091z M251.205,154.225c-0.002,0-0.005,0-0.007,0
	c-0.36,0-1.251,0.073-1.916,0.738c-0.552,0.552-0.83,1.388-0.828,2.485c0.001,0.578,0.215,1.464,0.813,2.054
	c0.479,0.473,1.167,0.696,2.009,0.7h2.841v-3.223C254.029,156.505,253.484,154.231,251.205,154.225z M257.549,123.178
	c-12.242,0.491-22.225,10.385-22.821,22.622c-0.271,5.576,1.378,10.755,4.34,14.938c2.238,3.16,3.823,6.734,4.618,10.524
	l0.908,4.327c0.398,1.897,2.071,3.255,4.009,3.255h5.514v-16.753h-2.831c-1.339,0.004-2.508-0.417-3.345-1.245
	c-1.271-1.255-1.373-2.915-1.374-3.394c-0.004-2.015,0.749-3.192,1.381-3.824c1.121-1.121,2.512-1.29,3.249-1.29
	c0.004,0,0.008,0,0.012,0c3.256,0.008,4.554,2.895,4.785,4.42l0.011,0.141v3.303h5.05l0.011-3.445
	c0.231-1.525,1.528-4.412,4.785-4.42c0.004,0,0.008,0,0.012,0c0.737,0,2.128,0.17,3.249,1.29c0.632,0.632,1.385,1.809,1.381,3.824
	c-0.001,0.479-0.103,2.138-1.374,3.394c-0.837,0.828-1.994,1.234-3.355,1.245h-2.822v16.753h5.046c1.901,0,3.552-1.307,3.987-3.157
	l0.806-3.425c0.958-4.072,2.642-7.954,5.09-11.347c2.825-3.917,4.49-8.726,4.49-13.924
	C282.362,133.502,271.157,122.632,257.549,123.178z M267.793,159.503c0.598-0.591,0.811-1.476,0.813-2.054
	c0.002-1.098-0.276-1.934-0.828-2.485c-0.665-0.665-1.556-0.738-1.916-0.738c-0.002,0-0.004,0-0.007,0
	c-2.273,0.005-2.821,2.27-2.912,2.755v3.222h2.831C266.644,160.215,267.315,159.976,267.793,159.503z M225.148,142.87h-14.392
	c-0.516,0-0.935,0.419-0.935,0.935c0,0.516,0.419,0.935,0.935,0.935h14.392c0.516,0,0.935-0.419,0.935-0.935
	C226.083,143.289,225.664,142.87,225.148,142.87z M299.837,124.152c-0.223-0.465-0.782-0.661-1.248-0.437l-12.969,6.239
	c-0.465,0.224-0.661,0.782-0.437,1.248c0.161,0.335,0.495,0.53,0.843,0.53c0.136,0,0.274-0.03,0.405-0.093L299.4,125.4
	C299.865,125.176,300.061,124.617,299.837,124.152z M274.295,122.095c0.137,0.071,0.284,0.105,0.429,0.105
	c0.339,0,0.665-0.184,0.831-0.506l6.609-12.785c0.237-0.458,0.058-1.023-0.401-1.26c-0.455-0.237-1.023-0.057-1.26,0.401
	l-6.609,12.785C273.657,121.294,273.836,121.859,274.295,122.095z M258.531,117.548c0.516,0,0.935-0.419,0.935-0.935v-14.392
	c0-0.516-0.419-0.935-0.935-0.935s-0.935,0.419-0.935,0.935v14.392C257.595,117.13,258.014,117.548,258.531,117.548z
	 M305.428,142.87h-14.392c-0.516,0-0.935,0.419-0.935,0.935c0,0.516,0.419,0.935,0.935,0.935h14.392
	c0.516,0,0.935-0.419,0.935-0.935C306.363,143.289,305.944,142.87,305.428,142.87z M230.564,129.953l-12.969-6.239
	c-0.466-0.224-1.025-0.028-1.248,0.437c-0.224,0.466-0.028,1.024,0.437,1.248l12.969,6.239c0.131,0.063,0.269,0.093,0.405,0.093
	c0.348,0,0.683-0.195,0.843-0.53C231.225,130.736,231.029,130.178,230.564,129.953z M241.459,122.2c0.145,0,0.292-0.033,0.429-0.105
	c0.459-0.237,0.639-0.801,0.401-1.26l-6.609-12.785c-0.236-0.459-0.803-0.639-1.26-0.401c-0.459,0.237-0.639,0.801-0.401,1.26
	l6.609,12.785C240.794,122.016,241.121,122.2,241.459,122.2z"></path>
<path id="color_x5F_6" fill="#c8ffd4" d="M219.728,524.428c0.028,0.001,0.045,0.001,0.045,0.001S219.747,524.429,219.728,524.428z
	 M219.121,524.455c-0.038,0.004-0.074,0.007-0.113,0.012C219.046,524.462,219.083,524.459,219.121,524.455z M218.329,524.639
	c0.073-0.033,0.153-0.06,0.235-0.083C218.482,524.579,218.402,524.606,218.329,524.639z M218.721,524.518
	c0.042-0.009,0.082-0.018,0.124-0.025C218.803,524.5,218.762,524.509,218.721,524.518z M287.747,524.705
	c0.035-0.033,0.068-0.066,0.098-0.094C287.815,524.639,287.781,524.672,287.747,524.705z M287.912,524.548
	c0.024-0.022,0.042-0.039,0.06-0.055C287.956,524.508,287.934,524.527,287.912,524.548z M294.591,524.429
	c0,0,0.026-0.001,0.045-0.001C294.608,524.429,294.591,524.429,294.591,524.429z M288.044,524.427c0,0-0.011,0.01-0.031,0.028
	C288.027,524.443,288.044,524.427,288.044,524.427z M294.697,524.428c0.022,0,0.051,0,0.079,0
	C294.745,524.428,294.72,524.427,294.697,524.428z M179.513,535.323c0,0,0-0.099,0-0.25H198.9c0.064-0.243,0.19-0.638,0.456-1.214
	c0.445-0.965,2.079-2.599,7.87-3.564c5.791-0.965,9.429-2.376,9.949-3.118c0.52-0.743,0.52-1.485,0.742-2.153
	c0.058-0.175,0.215-0.297,0.412-0.385l0.618-4.918h-4.204l4.49-81.875c-10.477,4.202-11.451,15.128-11.451,15.128
	c-9.631-1.537-22.288-1.737-34.04,3.773c-0.666-2.046-1.304-4.1-1.851-6.146c1.068-0.495,10.654-5.12,11.445-11.944
	c0.838-7.228,5.061-8.51,5.061-8.51s-7.795,2.316-11.497,8.231c-3.3,5.272-4.773,10.889-5.055,12.048
	c-0.549-2.07-1.007-4.128-1.315-6.154c-1.248-8.205,2.904-16.793,6.461-22.393c0.906-0.684,5.515-4.282,9.067-9.442
	c3.957-5.749,2.984-13.822,2.984-13.822s0.5,4.385-5.799,8.026c-4.747,2.744-5.981,10.073-6.302,13.519
	c-0.823,1.227-1.702,2.632-2.556,4.17c-1.795,3.233-3.711,7.492-4.576,12.073c-0.326-1.919-1.358-6.967-3.834-11.877
	c-3.144-6.231-10.693-9.252-10.693-9.252s4.087,1.665,4.257,8.938c0.155,6.607,8.605,11.936,10.152,12.857
	c-0.397,2.404-0.493,4.887-0.119,7.348c0.64,4.202,1.91,8.513,3.301,12.772c-0.2,0.099-0.398,0.203-0.597,0.305
	c-1.462-1.351-3.583-3.065-6.119-4.366c-4.875-2.5-11.363-0.111-11.363-0.111s3.526-1.272,6.823,3.738
	c1.403,2.131,3.925,2.975,6.363,3.245c-0.744,0.494-1.486,1.001-2.215,1.552c-24.524,18.511-16.498,43.898-16.498,43.898
	s-10.514-2.175-21.982-1.021c3.795-2.189,7.69-5.536,8.151-10.221c0.924-9.405,6.773-10.215,6.773-10.215
	s-10.798,1.425-15.763,8.486c-3.253,4.626-5.124,9.71-6.027,12.665c-1.26-7.65-2.715-15.349-5.123-22.309
	c-1.283-3.707-3.237-7.098-5.553-10.16c1.482-2.419,9.358-16.046,4.729-25.373c-5.095-10.267-0.617-15.585-0.617-15.585
	s-8.312,9.749-8.127,20.742c0.147,8.664,2.409,16.458,3.362,19.374c-4.565-5.755-10.36-10.289-15.234-13.48
	c-2.319-1.518-4.575-2.833-6.622-3.941c-2.973-4.571-10.069-13.886-18.7-14.231c-11.453-0.458-13.971-6.94-13.971-6.94
	s4.563,11.971,14.295,17.086c8.737,4.591,17.802,6.231,19.567,6.519c9.066,5.2,21.154,14.133,25.43,26.489
	c1.057,3.051,1.926,6.257,2.679,9.545c-1.243-1.41-7.416-8.161-15.884-13.094c-9.5-5.534-22.068-3.048-22.068-3.048
	s6.829-1.307,13.297,8.157c6.106,8.936,22.865,8.356,24.719,8.264c0.945,4.174,1.702,8.478,2.404,12.762
	c-11.525,3.115-21.682,10.997-20.525,29.421h100.361c0,0,0.004-0.018,0.004-0.02H179.513z M286.721,525.989
	c-0.223,0.594-0.817,9.355-0.817,9.355H228.46c0,0-0.594-8.761-0.817-9.355c-0.138-0.369-0.614-0.881-0.956-1.217l1.081-5.051h3.722
	l20.35-92.499c1.754-0.673,3.568-1.267,5.458-1.737c0,0,2.072-1.625,5.419-3.065l19.401,97.3h4.478l1.081,5.051
	C287.336,525.108,286.859,525.62,286.721,525.989z M273.562,535.073h-1.536c0.025,0.151,0.042,0.25,0.042,0.25L273.562,535.073z
	 M464.53,461.86c0,0,7.896-42.261-30.381-52.342c-38.278-10.081-64.122,19.003-67.255,36.027c0,0-6.977-2.957-17.153-4.71
	c1.742-1.328,3.21-3.09,3.43-5.336c0.587-5.969,4.299-6.484,4.299-6.484s-6.854,0.904-10.005,5.386
	c-1.354,1.925-2.324,3.969-2.999,5.682c-0.414-0.046-0.836-0.085-1.257-0.126c-0.71-4.024-1.554-8.013-2.822-11.677
	c-0.814-2.353-2.054-4.505-3.524-6.449c0.941-1.535,5.939-10.185,3.001-16.104c-3.234-6.517-0.391-9.892-0.391-9.892
	s-5.276,6.188-5.158,13.165c0.093,5.499,1.529,10.446,2.134,12.297c-2.898-3.652-6.576-6.53-9.669-8.556
	c-1.472-0.964-2.904-1.798-4.203-2.501c-1.887-2.901-6.391-8.814-11.869-9.032c-7.27-0.291-8.868-4.405-8.868-4.405
	s2.896,7.598,9.073,10.845c5.545,2.914,11.299,3.955,12.419,4.138c5.754,3.301,13.427,8.97,16.141,16.813
	c0.671,1.937,1.223,3.972,1.7,6.059c-0.789-0.895-4.707-5.18-10.082-8.311c-6.03-3.513-14.007-1.935-14.007-1.935
	s4.335-0.83,8.44,5.177c3.875,5.672,14.512,5.304,15.689,5.245c0.374,1.652,0.695,3.339,0.997,5.031
	c-10.975-0.93-24.087,0.145-36.057,6.858c0.026-0.014,0.051-0.032,0.076-0.046c-2.031-5.268-5.394-10.455-10.818-14.537
	l4.803,87.583h-4.796l0.617,4.918c-0.073-0.033-0.153-0.06-0.235-0.083c0.303,0.086,0.567,0.228,0.647,0.468
	c0.222,0.668,0.222,1.411,0.742,2.153c0.52,0.742,4.158,2.153,9.949,3.118c5.792,0.965,7.425,2.599,7.87,3.564
	c0.446,0.965,0.52,1.485,0.52,1.485h208.584l1.24-4.008C525.353,531.335,549.635,456.895,464.53,461.86z M294.976,524.434
	c-0.03-0.001-0.061-0.003-0.088-0.004C294.915,524.431,294.947,524.433,294.976,524.434z M295.357,524.467
	c-0.039-0.005-0.075-0.009-0.113-0.012C295.281,524.459,295.318,524.462,295.357,524.467z M295.644,524.518
	c-0.042-0.009-0.083-0.018-0.125-0.025C295.561,524.5,295.602,524.509,295.644,524.518z M226.52,524.611
	c0.03,0.028,0.063,0.061,0.098,0.094C226.584,524.672,226.549,524.639,226.52,524.611z M226.351,524.455
	c-0.019-0.018-0.031-0.028-0.031-0.028S226.337,524.443,226.351,524.455z M219.388,524.434c0.03-0.001,0.061-0.003,0.089-0.004
	C219.45,524.431,219.417,524.433,219.388,524.434z M219.589,524.428c0.028,0,0.057,0,0.079,0
	C219.644,524.427,219.619,524.428,219.589,524.428z M226.452,524.548c-0.023-0.022-0.042-0.039-0.06-0.055
	C226.409,524.508,226.43,524.527,226.452,524.548z"></path>
<path id="color_x5F_5" fill="#fdfdbd" d="M295.418,519.721l0.618,4.918c-0.556-0.248-1.445-0.209-1.445-0.209
	s-3.267,1.039-4.752,0.817c-1.485-0.223-1.795-0.819-1.795-0.819s-0.159,0.14-0.368,0.345l-1.081-5.051H295.418z M218.328,524.639
	c0.556-0.248,1.445-0.209,1.445-0.209s3.267,1.039,4.752,0.817c1.485-0.223,1.795-0.819,1.795-0.819s0.159,0.14,0.368,0.345
	l1.081-5.051h-8.822L218.328,524.639z M149.799,215.423c-0.913-1.504-2.686-5.533-3.331-6.769c-0.645-1.236-1.827,0.054-1.988,0.967
	c-0.161,0.913,0.537,3.116,0.698,3.546c0.161,0.43-13.269-9.616-14.183-9.67c-0.913-0.054-1.509,0.73-1.509,1.321
	c0,0.591,6.842,8.109,6.842,8.109s-10.11-5.476-11.077-4.885c-0.967,0.591-0.917,1.364-0.703,1.74
	c0.215,0.376,9.662,6.545,9.662,6.545s-10.307-1.926-10.683-1.442c-0.376,0.484-0.483,1.665,0,2.203
	c0.484,0.537,10.046,3.599,10.046,3.599s-8.112,2.471-8.166,3.17s0,1.45,0.376,1.558c0.376,0.107,9.24-1.558,9.24-1.558
	s3.546,3.008,5.265,3.277c1.719,0.269,4.19,0,4.19,0l3.749,2.035l2.76-6.762l-0.653-0.43
	C150.337,221.977,150.713,216.927,149.799,215.423z M278.042,228.279c-0.578-0.062-1.199,0.048-1.801,0.251
	c0,0-1.1,2.973-1.004,5.283s-2.118,5.871-2.118,5.871s0.144-0.77,0-1.973c-0.144-1.203-1.588-2.358-4.283-2.551
	c-2.695-0.193-5.053-2.069-5.053-2.069l2.021,2.069c0,0,0,0-6.545-1.973s-7.845-6.16-7.845-6.16
	c-0.096,1.155,0.674,2.599,0.674,2.599s-1.588-0.241-2.406-1.877c-0.818-1.636-0.481-1.733-2.551-1.444s-3.946,3.128-3.513,6.256
	s-1.107,5.053-1.107,5.053s0.096-1.011-0.433-2.358c-0.529-1.348-0.722-1.203-1.348-2.599c-0.626-1.396-0.328-4.3-0.328-4.3
	c-0.395-0.08-0.789-0.12-1.164-0.079c-1.781,0.193-3.465,2.839-1.781,6.641c1.078,2.433,3.02,4.665,4.281,5.959
	c0.08,0.223,0.164,0.447,0.253,0.671c0.032,0.081,0.068,0.163,0.101,0.244c0.059,0.143,0.117,0.286,0.18,0.429
	c0.043,0.099,0.091,0.199,0.136,0.298c0.057,0.125,0.113,0.249,0.174,0.374c0.053,0.109,0.109,0.219,0.164,0.328
	c0.058,0.114,0.115,0.228,0.175,0.343c0.061,0.116,0.126,0.232,0.19,0.348c0.06,0.108,0.119,0.215,0.182,0.323
	c0.07,0.121,0.143,0.241,0.216,0.362c0.062,0.102,0.124,0.203,0.188,0.305c0.079,0.125,0.161,0.25,0.243,0.374
	c0.064,0.096,0.128,0.192,0.194,0.288c0.089,0.129,0.18,0.258,0.273,0.387c0.065,0.09,0.132,0.181,0.2,0.271
	c0.099,0.133,0.2,0.265,0.304,0.398c0.066,0.084,0.134,0.167,0.202,0.251c0.112,0.138,0.224,0.275,0.342,0.412
	c0.065,0.076,0.132,0.152,0.199,0.227c0.126,0.143,0.252,0.286,0.383,0.428c0.061,0.066,0.125,0.131,0.187,0.197
	c0.143,0.151,0.287,0.302,0.437,0.452c0.046,0.046,0.096,0.092,0.143,0.138c0.804,0.788,1.704,1.558,2.719,2.303h0
	c0.316,0.232,0.639,0.461,0.977,0.688c0,0,0.385,4.185-2.344,5.769c1.509,4.021,5.375,6.888,9.923,6.888
	c4.423,0,8.197-2.712,9.789-6.559c-3.362-3.213-2.592-6.104-2.592-6.104c0.292-0.154,0.575-0.313,0.852-0.476
	c0.099-0.059,0.192-0.12,0.29-0.18c0.174-0.106,0.349-0.212,0.516-0.322c0.118-0.078,0.23-0.159,0.346-0.238
	c0.139-0.096,0.282-0.19,0.417-0.288c0.125-0.09,0.243-0.184,0.365-0.277c0.118-0.09,0.24-0.178,0.354-0.27
	c0.133-0.106,0.259-0.216,0.388-0.324c0.096-0.081,0.196-0.161,0.289-0.243c0.136-0.12,0.266-0.243,0.398-0.365
	c0.08-0.074,0.162-0.146,0.24-0.221c0.138-0.133,0.269-0.268,0.402-0.404c0.065-0.067,0.133-0.132,0.197-0.199
	c0.138-0.145,0.27-0.293,0.401-0.441c0.053-0.059,0.108-0.117,0.159-0.177c0.138-0.159,0.27-0.32,0.401-0.482
	c0.04-0.05,0.083-0.099,0.123-0.149c0.136-0.171,0.265-0.344,0.394-0.517c0.031-0.042,0.065-0.084,0.096-0.127
	c0.132-0.182,0.259-0.366,0.384-0.55c0.023-0.035,0.048-0.069,0.072-0.104c0.128-0.192,0.251-0.386,0.371-0.581
	c0.017-0.027,0.035-0.054,0.052-0.082c0.123-0.202,0.241-0.405,0.356-0.609c0.012-0.02,0.024-0.041,0.036-0.061
	c0.118-0.211,0.232-0.424,0.341-0.637c0.007-0.013,0.014-0.026,0.02-0.039c0.112-0.219,0.219-0.438,0.322-0.657
	c0.004-0.008,0.008-0.015,0.011-0.023c0.105-0.224,0.205-0.449,0.302-0.673c0.018-0.042,0.038-0.084,0.055-0.126
	c0.068,0.106,0.11,0.171,0.11,0.171s3.802-3.321,5.486-7.123C281.507,231.119,279.822,228.472,278.042,228.279z M393.737,214.212
	c-0.376-0.484-10.683,1.442-10.683,1.442s9.447-6.169,9.662-6.545c0.215-0.376,0.264-1.149-0.703-1.74
	c-0.967-0.591-11.077,4.885-11.077,4.885s6.842-7.518,6.842-8.109c0-0.591-0.596-1.374-1.509-1.321
	c-0.913,0.054-14.344,10.1-14.182,9.67c0.161-0.43,0.859-2.632,0.698-3.546c-0.161-0.913-1.343-2.203-1.988-0.967
	c-0.645,1.235-2.417,5.265-3.331,6.769c-0.913,1.504-0.537,6.554-0.537,6.554l-2.69,1.773l2.681,6.568l5.865-3.184
	c0,0,2.471,0.269,4.19,0c1.719-0.269,5.265-3.277,5.265-3.277s8.864,1.665,9.24,1.558c0.376-0.108,0.43-0.86,0.376-1.558
	c-0.054-0.698-8.166-3.17-8.166-3.17s9.562-3.062,10.046-3.599S394.113,214.696,393.737,214.212z"></path>
<path id="color_x5F_4" fill="#b1afff" d="M258.049,399.003l4.669,23.418c-3.348,1.439-5.419,3.065-5.419,3.065
	c-1.891,0.47-3.704,1.064-5.458,1.737l-5.072,23.052L258.049,399.003z M568.629,461.053c-7.893-51.002-83.607-69.472-52.5-134.333
	c24.263-50.591,21.933-113.195-6.961-142.064c-6.209,24.634-21.659,36.31-14.264,53.184c8.47,19.326,14.986,23.305,8.47,53.431
	c-6.515,30.126-22.153,18.189-20.198,46.61c1.954,28.421-18.245,25.011-18.245,25.011c-0.292-0.108-0.52-0.209-0.801-0.316V441.5
	c2.15,10.978,0.398,20.36,0.398,20.36c85.105-4.965,60.823,69.475,60.823,69.475l-1.24,4.008h0
	C564.486,533.358,572.963,489.053,568.629,461.053z M461.199,361.416v70.466c-4.051-9.415-11.962-18.39-27.051-22.364
	c-38.278-10.081-64.122,19.003-67.255,36.027c0,0-6.977-2.957-17.153-4.71c1.742-1.328,3.21-3.09,3.43-5.336
	c0.587-5.969,4.299-6.484,4.299-6.484s-6.854,0.904-10.005,5.386c-1.354,1.925-2.324,3.969-2.999,5.682
	c-0.414-0.046-0.836-0.085-1.257-0.126c-0.71-4.024-1.554-8.013-2.822-11.677c-0.814-2.353-2.054-4.505-3.524-6.449
	c0.941-1.535,5.939-10.185,3.001-16.104c-3.234-6.517-0.391-9.892-0.391-9.892s-5.276,6.188-5.158,13.165
	c0.093,5.499,1.529,10.446,2.134,12.297c-2.898-3.652-6.576-6.53-9.669-8.556c-1.472-0.964-2.904-1.798-4.203-2.501
	c-1.887-2.901-6.391-8.814-11.869-9.032c-7.27-0.291-8.868-4.405-8.868-4.405s2.896,7.598,9.073,10.845
	c5.545,2.914,11.299,3.955,12.419,4.138c5.754,3.301,13.427,8.97,16.141,16.813c0.671,1.937,1.223,3.972,1.7,6.059
	c-0.789-0.895-4.707-5.18-10.082-8.311c-6.03-3.513-14.007-1.935-14.007-1.935s4.335-0.83,8.44,5.177
	c3.875,5.672,14.512,5.304,15.689,5.245c0.374,1.652,0.695,3.339,0.997,5.031c-10.975-0.93-24.087,0.145-36.057,6.858
	c0.026-0.014,0.051-0.032,0.076-0.046c-2.031-5.268-5.394-10.455-10.818-14.537l4.803,87.583L291.455,360
	c-2.503-21.175,3.273-74.692,3.273-74.692l36.833-21.175l36.447-31.827l-1.437-3.521l0.351,0.859l5.865-3.184
	c0,0,2.471,0.269,4.19,0c1.719-0.269,5.265-3.277,5.265-3.277s8.864,1.665,9.24,1.558c0.376-0.108,0.43-0.86,0.376-1.558
	c-0.054-0.698-8.166-3.17-8.166-3.17s9.562-3.062,10.046-3.599s0.376-1.719,0-2.203c-0.376-0.484-10.683,1.442-10.683,1.442
	s9.447-6.169,9.662-6.545c0.215-0.376,0.265-1.149-0.703-1.74c-0.967-0.591-11.077,4.885-11.077,4.885s6.842-7.518,6.842-8.109
	c0-0.591-0.596-1.374-1.509-1.321c-0.913,0.054-14.344,10.1-14.182,9.67c0.161-0.43,0.859-2.632,0.698-3.546
	c-0.161-0.913-1.343-2.203-1.988-0.967c-0.645,1.236-2.417,5.265-3.331,6.769c-0.913,1.504-0.537,6.554-0.537,6.554l-2.69,1.773
	l-1.366-3.348l-39.784,26.437l-30.416,7.315l-24.323,2.906c-0.125,0.492-0.292,0.966-0.483,1.428
	c-3.362-3.213-2.592-6.104-2.592-6.104s5.325-1.711,6.159-2.737c0.834-1.027,1.155-2.037,1.668-2.872
	c0.513-0.834,1.232-4.059,1.232-4.059s3.802-3.321,5.486-7.123s0-6.449-1.781-6.641c-0.578-0.062-1.199,0.048-1.801,0.251
	c0,0,0.97-0.78,0.97-2.706s-2.358-3.176-2.021-6.786c0.337-3.609-0.674-5.486-4.62-6.834c-3.946-1.348-4.909-1.973-8.855-3.609
	c-3.946-1.636-5.486-1.636-8.807,0c-3.321,1.636-3.745,0.309-7.595,1.656c-3.85,1.348-6.602,5.274-6.506,7.44
	s1.211,1.972,0.128,3.881c-1.412,2.488,0.264,4.871,0.353,4.958c0.733,0.714,1.116,1.828,1.116,1.828
	c-0.395-0.08-0.789-0.12-1.164-0.079c-1.781,0.193-3.465,2.839-1.781,6.641c1.078,2.433,3.02,4.665,4.281,5.959
	c-0.067-0.069-0.143-0.151-0.214-0.225c0.024,0.577,0.105,1.343,0.328,2.11c0.449,1.54,0.922,3.184,1.693,4.404
	c0.77,1.219,5.334,3.345,5.655,3.73c0.072,0.086,0.185,0.12,0.323,0.13h0c0.316,0.232,0.639,0.461,0.977,0.688
	c0,0,0.385,4.185-2.344,5.769c-0.117-0.311-0.223-0.626-0.311-0.95l-25.563-3.054l-30.416-7.315l-39.784-26.437l-1.093,2.679
	l-0.653-0.431c0,0,0.376-5.05-0.537-6.554c-0.913-1.504-2.686-5.533-3.331-6.769c-0.645-1.236-1.827,0.054-1.988,0.967
	c-0.161,0.913,0.537,3.116,0.698,3.546c0.161,0.43-13.269-9.616-14.182-9.67c-0.913-0.054-1.509,0.73-1.509,1.321
	c0,0.591,6.842,8.109,6.842,8.109s-10.11-5.476-11.077-4.885c-0.967,0.591-0.917,1.364-0.703,1.74
	c0.215,0.376,9.662,6.545,9.662,6.545s-10.307-1.926-10.683-1.442c-0.376,0.484-0.483,1.665,0,2.203
	c0.484,0.537,10.046,3.599,10.046,3.599s-8.112,2.471-8.166,3.17c-0.054,0.698,0,1.45,0.376,1.558
	c0.376,0.107,9.24-1.558,9.24-1.558s3.546,3.008,5.265,3.277c1.719,0.269,4.19,0,4.19,0l3.749,2.035l-1.28,3.136l36.448,31.827
	l36.832,21.175c0,0,5.775,53.516,3.273,74.692l-4.269,77.845c-10.477,4.202-11.451,15.128-11.451,15.128
	c-9.631-1.537-22.288-1.737-34.04,3.773c-0.666-2.046-1.304-4.1-1.851-6.146c1.068-0.495,10.654-5.12,11.445-11.944
	c0.838-7.228,5.061-8.51,5.061-8.51s-7.795,2.316-11.497,8.231c-3.3,5.272-4.773,10.889-5.055,12.048
	c-0.549-2.07-1.007-4.128-1.315-6.154c-1.248-8.205,2.904-16.793,6.461-22.393c0.906-0.684,5.515-4.282,9.067-9.442
	c3.957-5.749,2.984-13.822,2.984-13.822s0.5,4.385-5.799,8.026c-4.747,2.744-5.981,10.073-6.302,13.519
	c-0.823,1.227-1.702,2.632-2.556,4.17c-1.795,3.233-3.711,7.492-4.576,12.073c-0.326-1.919-1.358-6.967-3.834-11.877
	c-3.144-6.231-10.693-9.252-10.693-9.252s4.087,1.665,4.257,8.938c0.155,6.607,8.605,11.936,10.152,12.857
	c-0.397,2.404-0.493,4.887-0.119,7.348c0.64,4.202,1.91,8.513,3.301,12.772c-0.2,0.099-0.398,0.203-0.597,0.305
	c-1.462-1.351-3.583-3.065-6.119-4.366c-4.875-2.5-11.363-0.111-11.363-0.111s3.526-1.272,6.823,3.738
	c1.403,2.131,3.925,2.975,6.363,3.245c-0.744,0.494-1.486,1.001-2.215,1.552c-24.524,18.511-16.498,43.898-16.498,43.898
	s-10.514-2.175-21.982-1.021c3.795-2.189,7.69-5.536,8.151-10.221c0.924-9.405,6.773-10.215,6.773-10.215
	s-10.798,1.425-15.763,8.486c-3.253,4.626-5.124,9.71-6.027,12.665c-1.26-7.65-2.715-15.349-5.123-22.309
	c-1.283-3.707-3.237-7.098-5.553-10.16c1.482-2.419,9.358-16.046,4.729-25.373c-5.095-10.267-0.617-15.585-0.617-15.585
	s-8.312,9.749-8.127,20.742c0.147,8.664,2.409,16.458,3.362,19.374c-4.565-5.755-10.36-10.289-15.234-13.48
	c-2.319-1.518-4.575-2.833-6.622-3.941c-2.973-4.571-10.069-13.886-18.7-14.231c-11.453-0.458-13.971-6.94-13.971-6.94
	s4.563,11.971,14.295,17.086c8.737,4.591,17.802,6.231,19.567,6.519c9.066,5.2,21.154,14.133,25.43,26.489
	c1.057,3.051,1.926,6.257,2.679,9.545c-1.243-1.41-7.416-8.161-15.884-13.094c-9.5-5.534-22.068-3.048-22.068-3.048
	s6.829-1.307,13.297,8.157c6.106,8.936,22.865,8.356,24.719,8.264c0.945,4.174,1.702,8.478,2.404,12.762
	c-11.517,3.112-21.667,10.987-20.527,29.383c-0.086-0.027-72.837-22.5-72.844-96.586c-0.006-64.5,86.819-64.07,101.667-140.333
	c7.333-37.667-18.54-57.602-19.667-124.667c-0.993-59.07,37.667-117,102.699-115.609c101.904,2.18,92.951,79.565,118.968,104.609
	c22.104,21.277,52.464,15.659,85.747,10.201c5.926,19.932,18.465,25.808,15.356,43.887c-3.909,22.737-23.456,32.968-11.077,55.705
	c12.38,22.737,12.38,31.263,10.425,42.631c-1.955,11.368,3.258,21.6,13.032,28.421C451.932,349.953,444.518,354.347,461.199,361.416
	z M274.295,122.095c0.137,0.071,0.284,0.105,0.429,0.105c0.339,0,0.665-0.184,0.831-0.506l6.609-12.785
	c0.237-0.458,0.058-1.023-0.401-1.26c-0.455-0.237-1.023-0.057-1.26,0.401l-6.609,12.785
	C273.657,121.294,273.836,121.859,274.295,122.095z M257.595,116.613c0,0.516,0.419,0.935,0.935,0.935s0.935-0.419,0.935-0.935
	v-14.392c0-0.516-0.419-0.935-0.935-0.935s-0.935,0.419-0.935,0.935V116.613z M226.083,143.805c0-0.516-0.419-0.935-0.935-0.935
	h-14.392c-0.516,0-0.935,0.419-0.935,0.935c0,0.516,0.419,0.935,0.935,0.935h14.392C225.664,144.74,226.083,144.322,226.083,143.805
	z M230.564,129.953l-12.969-6.239c-0.466-0.224-1.025-0.028-1.248,0.437c-0.224,0.466-0.028,1.024,0.437,1.248l12.969,6.239
	c0.131,0.063,0.269,0.093,0.405,0.093c0.348,0,0.683-0.195,0.843-0.53C231.225,130.736,231.029,130.178,230.564,129.953z
	 M234.019,108.909l6.609,12.785c0.166,0.322,0.493,0.506,0.831,0.506c0.145,0,0.292-0.033,0.429-0.105
	c0.459-0.237,0.639-0.801,0.401-1.26l-6.609-12.785c-0.236-0.459-0.803-0.639-1.26-0.401
	C233.962,107.886,233.782,108.451,234.019,108.909z M282.362,146.99c0-13.487-11.204-24.358-24.813-23.812
	c-12.242,0.491-22.225,10.385-22.821,22.622c-0.271,5.576,1.378,10.755,4.34,14.938c2.238,3.16,3.823,6.734,4.618,10.524
	l0.908,4.327c0.339,1.613,1.603,2.828,3.165,3.158c-0.077-0.016-0.155-0.026-0.231-0.047v2.318c-0.564,0.296-0.954,0.88-0.954,1.562
	c0,0.682,0.389,1.266,0.954,1.562c0,0,0,0,0,0v2.422c-0.564,0.296-0.954,0.88-0.954,1.562c0,0.699,0.408,1.297,0.996,1.585
	c0.069,0.679,0.23,1.33,0.456,1.949c0.103-0.019,0.209-0.032,0.318-0.032c-0.977,0-1.77,0.792-1.77,1.77v0
	c0,0.977,0.792,1.77,1.77,1.77h2.149c1.058,0.875,2.341,1.488,3.749,1.74c0.634,1.757,2.311,3.016,4.287,3.016
	s3.653-1.259,4.287-3.016c1.408-0.252,2.691-0.865,3.749-1.74h2.149c0.977,0,1.77-0.792,1.77-1.77v0c0-0.977-0.792-1.77-1.77-1.77
	c0.109,0,0.214,0.013,0.318,0.032c0.225-0.62,0.387-1.27,0.456-1.949c0.588-0.288,0.996-0.886,0.996-1.585
	c0-0.681-0.389-1.266-0.954-1.562v-2.422c0,0,0,0,0,0c0.565-0.296,0.954-0.88,0.954-1.562c0-0.681-0.389-1.266-0.954-1.562v-2.479
	c-0.019,0.008-0.04,0.01-0.059,0.018c1.227-0.479,2.187-1.528,2.503-2.87l0.806-3.425c0.958-4.072,2.642-7.954,5.09-11.347
	C280.697,156.997,282.362,152.188,282.362,146.99z M286.431,131.639L299.4,125.4c0.465-0.224,0.661-0.782,0.437-1.248
	c-0.223-0.465-0.782-0.661-1.248-0.437l-12.969,6.239c-0.465,0.224-0.661,0.782-0.437,1.248c0.161,0.335,0.495,0.53,0.843,0.53
	C286.162,131.731,286.3,131.702,286.431,131.639z M306.363,143.805c0-0.516-0.419-0.935-0.935-0.935h-14.392
	c-0.516,0-0.935,0.419-0.935,0.935c0,0.516,0.419,0.935,0.935,0.935h14.392C305.944,144.74,306.363,144.322,306.363,143.805z"></path>
<path id="color_x5F_3" fill="#b8e8fc" d="M300.214,519.721h-18.095l-24.07-120.718L231.49,519.721h-16.748L223.502,360h24.831
	h18.289h24.831L300.214,519.721z M226.32,524.427c0,0-0.31,0.596-1.795,0.819c-1.485,0.223-4.752-0.817-4.752-0.817
	s-1.633-0.074-1.856,0.594c-0.223,0.668-0.223,1.411-0.742,2.153c-0.52,0.742-4.158,2.153-9.949,3.118
	c-5.791,0.965-7.425,2.599-7.87,3.564c-0.446,0.965-0.52,1.485-0.52,1.485h29.624c0,0-0.594-8.761-0.817-9.355
	C227.421,525.395,226.32,524.427,226.32,524.427z M307.139,530.295c-5.791-0.965-9.429-2.376-9.949-3.118
	c-0.52-0.743-0.52-1.485-0.742-2.153c-0.223-0.668-1.856-0.594-1.856-0.594s-3.267,1.039-4.752,0.817
	c-1.485-0.223-1.795-0.819-1.795-0.819s-1.101,0.968-1.323,1.562c-0.223,0.594-0.817,9.355-0.817,9.355h29.624
	c0,0-0.074-0.52-0.52-1.485C314.563,532.894,312.93,531.26,307.139,530.295z"></path>
<path id="color_x5F_2" fill="#b8e8fc" d="M362.874,219.729l-39.784,26.437l-30.416,7.315l-24.323,2.906
	c-1.17,4.589-5.318,7.987-10.272,7.987c-4.9,0-9.012-3.325-10.233-7.839l-25.563-3.054l-30.416-7.315l-39.784-26.437l-5.133,12.577
	l36.448,31.827l36.832,21.175c0,0,5.775,53.516,3.273,74.691h24.831h18.289h24.831c-2.503-21.175,3.273-74.691,3.273-74.691
	l36.833-21.175l36.447-31.827L362.874,219.729z"></path>
<path id="color_x5F_1" d="M249.524,251.029c-0.138-0.01-0.251-0.044-0.323-0.13c-0.321-0.385-4.885-2.511-5.655-3.73
	c-0.77-1.219-1.243-2.863-1.692-4.404c-0.224-0.767-0.304-1.533-0.328-2.11c0.071,0.074,0.147,0.156,0.214,0.225
	C242.969,244.331,245.265,247.904,249.524,251.029z M265.277,251.711c0,0,5.325-1.711,6.159-2.738
	c0.834-1.027,1.155-2.037,1.668-2.872c0.513-0.834,1.232-4.059,1.232-4.059l-0.162-0.053
	C272.611,245.648,269.916,249.255,265.277,251.711z M275.19,219.039c0.337-3.609-0.674-5.486-4.62-6.834
	c-3.946-1.348-4.909-1.973-8.855-3.609c-3.946-1.636-5.486-1.636-8.807,0c-3.321,1.636-3.745,0.309-7.595,1.656
	c-3.85,1.348-6.602,5.274-6.506,7.44s1.211,1.972,0.128,3.881c-1.412,2.488,0.264,4.871,0.353,4.958
	c0.733,0.714,1.116,1.828,1.116,1.828s-0.297,2.905,0.328,4.3c0.626,1.396,0.818,1.251,1.348,2.599
	c0.529,1.348,0.433,2.358,0.433,2.358s1.54-1.925,1.107-5.053c-0.433-3.128,1.444-5.968,3.513-6.256
	c2.069-0.289,1.733-0.193,2.551,1.444c0.818,1.636,2.406,1.877,2.406,1.877s-0.77-1.444-0.674-2.599c0,0,1.299,4.187,7.845,6.16
	s6.545,1.973,6.545,1.973l-2.021-2.069c0,0,2.358,1.877,5.053,2.069c2.695,0.193,4.139,1.348,4.283,2.551
	c0.144,1.203,0,1.973,0,1.973s2.214-3.561,2.118-5.871s1.004-5.283,1.004-5.283s0.97-0.78,0.97-2.705
	C277.211,223.9,274.853,222.649,275.19,219.039z" fill="#c8ffd4"></path>
</svg>