<?xml version="1.0" standalone="no"?>
<svg version="1.1" id="Layer_1" xmlns="http://www.w3.org/2000/svg" xmlns:xlink="http://www.w3.org/1999/xlink" x="0px" y="0px" viewBox="0 0 595.28 595.28" enable-background="new 0 0 595.28 595.28" xml:space="preserve">
<path id="color_x5F_8" fill="#b8e8fc" d="M249.968,510.577H136.083v-37.962h75.923v-59.531h99.218v-51.814h169.102v37.962h-131.14
	v51.814h-99.218V510.577z"></path>
<path id="color_x5F_7" fill="#c8ffd4" d="M359.438,476.334c0,0-5.499-3.777-11.608-2.031c2.302-2.275,5.919-4.274,11.016-2.75
	C358.727,474.362,359.438,476.334,359.438,476.334z M335.886,469.172c-6.439,0.356-9.852,4.064-9.852,4.064
	s-2.527-7.518-9.511-12.558c-2.667-2.277-6.25-4.007-11.06-4.368c-0.927-0.07-1.824-0.095-2.692-0.081
	c-0.868-0.014-1.765,0.012-2.692,0.081c-4.81,0.36-8.393,2.091-11.059,4.368c-6.985,5.04-9.512,12.558-9.512,12.558
	s-1.837-4.409-8.277-4.765c-2.498-0.138-6.596,4.499-6.596,4.499c-0.714,0.693-1.319,1.442-1.826,2.166
	c-3.618-4.689-8.644-5.138-12.84-4.374v39.815h-45.729c0.081,0.268,0.139,0.423,0.139,0.423l23.65-0.026h14.065V511h20.716v-0.026
	h59.418c-0.167-0.547-3.62-12.236,5.906-14.859c9.755-2.686,12.93,4.396,12.93,4.396s-4.673-18.225,2.533-24.016
	c-0.621-1.078-1.509-2.378-2.69-3.524C340.907,472.97,338.384,469.034,335.886,469.172z"></path>
<path id="color_x5F_6" fill="#c8ffd4" d="M547.538,511l-29.62-0.039l0.003,0.003H389.133V511h-23.718v-0.036h-16.103L322.235,511
	c0,0-3.857-12.199,5.898-14.886c9.755-2.686,12.93,4.396,12.93,4.396s-4.764-18.559,2.722-24.176c7.486-5.617,15.653,0,15.653,0
	s-3.423-9.444,5.977-16.473c0,0,15.239-11.173,23.718,1.982c0.58-0.992,1.272-2.019,2.09-2.969c0,0,4.692-6.356,7.552-6.166
	c7.373,0.488,9.476,6.532,9.476,6.532s2.893-10.305,10.89-17.213c3.053-3.121,7.156-5.492,12.662-5.986
	c1.061-0.095,2.089-0.13,3.083-0.111c0.994-0.019,2.021,0.016,3.083,0.111c5.507,0.494,9.609,2.866,12.662,5.987
	c7.997,6.908,10.89,17.213,10.89,17.213s3.907-5.082,11.28-5.571c2.86-0.189,5.749,5.205,5.749,5.205
	c2.962,3.44,4.336,7.918,4.336,7.918s5.671-15.855,18.602-8.773c12.931,7.082,8.847,18.315,8.847,18.315s8.167-5.617,15.653,0
	c7.486,5.617,2.722,24.176,2.722,24.176s3.176-7.082,12.93-4.396C551.394,498.801,547.538,511,547.538,511z M165.703,426.249
	l-41.829-47.705h34.759l-45.012-51.336h28.25l-32.67-37.26h17.69l-32.352-36.897l-32.352,36.897h17.69l-32.67,37.26h28.25
	l-45.012,51.336h34.759l-41.829,47.705h64.308v59.628c-5.436,3.395-3.456,7.956-3.456,7.956s-4.722-2.713-9.051,0
	c-4.329,2.713-1.574,11.677-1.574,11.677s-1.836-3.421-7.477-2.123c-5.64,1.297-3.41,7.19-3.41,7.19l15.657-0.017h9.311v0.017
	h13.714v-0.017h34.688v-33.966c-1.655-1.167-3.76-2.02-6.45-2.222c-0.614-0.046-1.208-0.063-1.782-0.054
	c-0.575-0.009-1.169,0.008-1.782,0.054c-3.184,0.239-5.556,1.384-7.322,2.891c-4.624,3.337-6.297,8.314-6.297,8.314
	s-1.216-2.919-5.479-3.155c-1.654-0.091-4.367,2.978-4.367,2.978c-0.473,0.459-0.873,0.955-1.209,1.434v-60.586H165.703z"></path>
<path id="color_x5F_5_1_" fill="#fdfdbd" d="M161.858,461.347c0.649,4.128,0.244,6.635,0.242,6.651
	c-0.307,0.725-1.291,2.656-3.525,3.967c-2.795,1.642-9.05-0.665-10.869-1.375c-0.656-0.256-1.218-0.326-1.671-0.313c0,0,0,0,0-0.001
	c-0.325-0.559-0.651-1.358-0.739-2.512c-0.089-1.153,1.213-1.745,1.213-1.745s-0.164-0.352-0.644-0.57l3.04-0.583
	c-1.051-1.343-1.218-4.414-1.21-6.358c0.001-0.003,0.561-4.616,5.469-5.266C158.072,452.592,161.207,457.206,161.858,461.347z
	 M194.289,456.038c-1.597-0.621-4.259-6.389-6.832-9.361c0,0-0.089-1.065,0.444-1.686c0.532-0.621,4.836-3.815,5.058-8.607
	l-0.266-2.795c0,0,1.242-1.819,1.198-3.638c-0.044-1.819-1.508-3.15-2.706-2.396c0,0-2.307-10.337-12.245-9.672
	c-9.938,0.665-12.955,9.184-12.511,12.378c0.444,3.194,1.464,3.993,1.464,3.993s-1.775,0-2.218,1.331
	c-0.444,1.331,1.597,3.771,3.15,4.037c1.553,0.266,1.996,0.665,1.996,0.665l-6.921,2.751c0,0-0.012,0-0.031,0.001
	c-0.591,2.256-1.034,6.079,0.771,10.499c2.898,7.098,7.69,8.932,7.69,8.932c-2.603,4.318-8.474,5.457-8.474,5.457
	s1.819,2.085,6.034,1.065c4.215-1.02,4.17-7.01,4.17-7.01l2.529-1.819l4.082,6.655c0,0-0.577,2.484-0.621,2.795
	c-0.044,0.311,0.266,0.399,1.02,0.311c0.754-0.089,0.532,0.532,1.42,0.976c0.887,0.444,3.106,0.311,3.727-0.976
	c0.621-1.287-0.222-2.307-0.444-2.928c-0.222-0.621-0.621-1.508-0.621-1.508l0.311-9.072l6.566,2.684c0,0,0.266,1.952,1.02,2.662
	c0.754,0.71,0.976-1.375,0.976-1.375s0.799,1.287,1.863,0.976c1.065-0.311,2.662-2.884,1.553-4.303
	C196.33,455.639,195.886,456.659,194.289,456.038z M276.244,407.466l0.737,1.605l0.282-0.26c0,0,2.013-0.378,3.014-0.546
	l-0.203-1.666L276.244,407.466z M274.999,321.015c0.425-0.128,0.993,0.093,1.338-0.426c0.344-0.519-1.308-2.374-0.329-5.58
	c0.274-0.896,0.34-1.908,0.293-2.9c-1.775,0.458-4.14,0.426-6.602,0.016c-4.026-0.671-5.033-0.419-5.62,1.09
	c-0.587,1.51,1.174,4.781,1.174,4.781c-2.684,0-3.439-1.594-4.529-3.271c-1.09-1.677-3.774-0.168-3.02,2.181
	c0.755,2.349,1.761,3.02,1.845,4.445s-0.587,2.718-0.587,2.718h-1.491c-0.049,0.684-0.116,1.344-0.191,1.953
	c2.753-0.763,5.895-0.753,8.689,1.259c0.18-0.762,0.475-1.351,0.955-1.369c1.386-0.052,4.325,1.477,5.162,0.609
	C272.924,325.653,273.136,321.577,274.999,321.015z M293.743,349.033c1.294-0.791,0.431-2.301-1.294-1.941
	c-1.726,0.359-3.163,0.359-5.967-0.395s-9.08-6.265-9.08-6.265l-5.345,4.751c6.455,3.628,13.562,5.792,13.562,5.792
	s1.294,1.15,2.301,2.948c1.007,1.797,3.02,3.379,4.745,2.444c1.726-0.935,3.02-2.876,2.732-4.026
	C295.109,351.19,292.449,349.824,293.743,349.033z M242.858,408.419l3.929,0.576l1.17-2.138l-4.096-0.52L242.858,408.419z
	 M241.042,350.902c0,0.719,4.221,6.733,4.223,6.736c1.631-6.636,3.398-15.292,3.398-15.292l-2.777-2.065
	C244.126,343.928,241.042,350.389,241.042,350.902z M415.313,169.004c0.102-0.71,0.092-1.46,0.012-2.214
	c-0.44,0.266-1.644,0.928-3.019,1.105c-1.727,0.222-6.52,0.054-7.347,1.177c-0.827,1.123,0.341,3.661,1.021,4.706
	c0.68,1.044-0.389,1.452-1.777,1.565c-1.388,0.113-1.863-0.61-1.329-2.383c0.534-1.773-0.94-5.083-2.524-3.95
	c-1.584,1.132-1.635,4.338-0.812,6.292c0.823,1.954,0.094,2.884-1.028,3.973c-1.019,0.989-2.909,3.248-3.486,3.447
	c0.079,0.869,0.129,1.719,0.157,2.504c2.631,0.931,7.812,2.769,10.744,3.838c-0.211-1.344-0.708-5.258,0.64-5.518
	c1.628-0.314,5.38,0.956,6.212-0.222c0.831-1.178,0.338-6.034,2.437-7.038c0.479-0.229,1.191-0.071,1.503-0.747
	C417.032,174.863,414.741,172.972,415.313,169.004z M350.588,344.7l5.08,1.982l2.138-2.587l-5.552-1.875L350.588,344.7z
	 M443.059,346.291l1.124,2.221l5.322,0.023l-0.846-2.322L443.059,346.291z M473.765,217.285c-0.72-0.585-1.081,0-2.431,0
	s-1.666-0.54-2.476-0.405s-1.441,0.495-2.026,0.99c-0.585,0.495-2.799,0.27-2.799,0.27l-33.803-6.349l-2.751-2.356l-7.366,7.357
	c0.096,0.832,0.189,1.675,0.279,2.523l8.074,4.469l35.39,0.045l2.481,0.12c0,0,0.63,0.27,1.576,0.72c0.945,0.45,1.531,0.09,3.061,0
	c1.531-0.09,3.016-0.585,3.467-2.206C474.891,220.841,474.486,217.87,473.765,217.285z M384.262,222.956l3.974-6.194
	c-0.309-0.995-0.617-1.966-0.908-2.917l-8.068-4.671l-7.333,13.349l19.072,16.823c0.345-2.977,0.392-5.716,0.228-8.255
	L384.262,222.956z"></path>
<path id="color_x5F_4" fill="#b1afff" d="M388.236,216.762l-0.001,0.001c-0.055-0.177-0.11-0.358-0.165-0.533
	C388.127,216.409,388.18,216.58,388.236,216.762z M384.263,222.956l6.964,8.134c-0.357-5.546-1.692-10.154-2.99-14.328
	L384.263,222.956z M536.226,495.588c-5.547,0.584-7.517,4.922-7.517,4.922s4.764-18.559-2.722-24.176
	c-7.486-5.617-15.653,0-15.653,0s4.083-11.233-8.847-18.315c-12.93-7.082-18.602,8.773-18.602,8.773s-1.374-4.478-4.336-7.918
	c0,0-2.888-5.395-5.749-5.205c-7.373,0.488-11.28,5.571-11.28,5.571s-2.893-10.305-10.89-17.213
	c-3.053-3.121-7.156-5.493-12.662-5.987c-1.062-0.095-2.089-0.13-3.083-0.111c-0.994-0.019-2.021,0.016-3.083,0.111
	c-5.507,0.494-9.609,2.866-12.662,5.987c-7.997,6.908-10.89,17.213-10.89,17.213s-2.104-6.043-9.476-6.532
	c-2.86-0.189-7.552,6.166-7.552,6.166c-0.818,0.95-1.51,1.977-2.09,2.969c-8.479-13.155-23.718-1.982-23.718-1.982
	c-5.108,3.819-6.427,8.349-6.569,11.691c-5.097-1.524-8.714,0.475-11.016,2.75c-1.336,0.382-2.701,1.023-4.045,2.031
	c-0.066,0.05-0.124,0.108-0.189,0.16c-0.621-1.078-1.509-2.378-2.689-3.524c0,0-2.523-3.936-5.021-3.798
	c-6.439,0.356-9.852,4.064-9.852,4.064s-2.527-7.518-9.511-12.558c-2.667-2.277-6.25-4.007-11.06-4.368
	c-0.927-0.069-1.824-0.095-2.692-0.081c-0.868-0.014-1.765,0.012-2.692,0.081c-4.81,0.36-8.393,2.091-11.059,4.368
	c-6.985,5.04-9.512,12.558-9.512,12.558s-1.837-4.409-8.277-4.766c-2.498-0.138-6.596,4.499-6.596,4.499
	c-0.714,0.693-1.319,1.442-1.826,2.166c-3.618-4.689-8.644-5.138-12.84-4.374v-19.715h99.218v-51.814h131.14v-37.962h-112.4
	c-0.219-0.689-0.738-1.273-0.738-1.273c-9.543-3.031-10.527-12.928-10.527-12.928l-7.432-2.899l-4.392,11.261l4.88,1.903
	c0,0,1.378-1.538,1.904-1.333c0.526,0.205,2.331,1.342,3.661,2.812c0.673,0.744,1.965,1.661,3.429,2.458h-47.487v51.814h-99.218
	v59.531h-75.923v3.978c-1.655-1.167-3.76-2.02-6.45-2.222c-0.614-0.046-1.208-0.063-1.782-0.054
	c-0.575-0.009-1.169,0.008-1.782,0.054c-3.184,0.239-5.556,1.384-7.322,2.891c-4.624,3.337-6.297,8.314-6.297,8.314
	s-1.216-2.919-5.479-3.155c-1.654-0.091-4.367,2.978-4.367,2.978c-0.473,0.459-0.873,0.955-1.208,1.434v-60.586h64.308
	l-41.829-47.705h34.759l-26.07-29.732c12.829-3.536,26.428-6.662,40.497-9.815c55.606-12.463,46.019-57.523,67.111-135.18
	c21.092-77.657,107.431-119.521,188.868-109.294c78.373,9.842,111.212,89.161,79.574,169.694s-24.927,103.542-3.835,133.263
	c21.092,29.72,34.514,26.525,40.266,56.45C548.658,472.728,543.103,486.393,536.226,495.588z M197.439,457.058
	c-1.109-1.42-1.553-0.399-3.15-1.02c-1.597-0.621-4.259-6.389-6.832-9.361c0,0-0.089-1.065,0.444-1.686
	c0.532-0.621,4.836-3.815,5.058-8.607l-0.266-2.795c0,0,1.242-1.819,1.198-3.638c-0.044-1.819-1.508-3.15-2.706-2.396
	c0,0-2.307-10.337-12.245-9.672c-9.938,0.665-12.955,9.184-12.511,12.378c0.444,3.194,1.464,3.993,1.464,3.993s-1.775,0-2.218,1.331
	c-0.444,1.331,1.597,3.771,3.15,4.037c1.553,0.266,1.996,0.665,1.996,0.665l-6.921,2.751c0,0-0.012,0-0.031,0.001
	c-0.73,0.022-14.993,0.611-16.117,13.752c0,0-0.052,0.706-0.056,1.717v0v0c-0.008,1.944,0.159,5.015,1.21,6.357l-3.04,0.583
	c0,0,0,0,0,0c-0.213-0.097-0.481-0.169-0.835-0.169c-1.154,0-1.982,2.159-2.425,3.904c-0.444,1.745,0.089,2.959,1.39,3.358
	c1.301,0.399,2.366-1.706,2.041-2.266c0,0,0,0,0,0.001c0.453-0.013,1.015,0.056,1.671,0.312c1.819,0.71,8.074,3.017,10.869,1.375
	c2.233-1.312,3.218-3.242,3.525-3.967c0,0,0.003-0.024,0.004-0.029c-0.001,0.005-0.004,0.029-0.004,0.029
	c0.077-0.182,0.113-0.292,0.113-0.292s0.577,0.577,1.641,0.222c0,0,1.819,2.085,6.034,1.065c4.215-1.02,4.17-7.01,4.17-7.01
	l2.529-1.819l4.082,6.655c0,0-0.577,2.484-0.621,2.795c-0.044,0.311,0.266,0.399,1.02,0.311c0.754-0.089,0.532,0.532,1.42,0.976
	c0.887,0.444,3.106,0.311,3.727-0.976c0.621-1.287-0.222-2.307-0.444-2.928c-0.222-0.621-0.621-1.508-0.621-1.508l0.311-9.072
	l6.566,2.684c0,0,0.266,1.952,1.02,2.662c0.754,0.71,0.976-1.375,0.976-1.375s0.799,1.287,1.863,0.976
	C196.951,461.051,198.548,458.478,197.439,457.058z M250.885,410.5c-0.485-0.544-1.752-0.679-2.319-0.463
	c-0.566,0.216-1.132-0.358-1.375-0.682c-0.243-0.324-0.404-0.36-0.404-0.36l1.17-2.138l-4.096-0.52l-1.002,2.083l3.929,0.576
	l-3.981-0.583c0,0-0.575-0.162-0.683,0c-0.108,0.162-0.836,2.939-0.809,3.128c0.027,0.189,6.282,1.483,6.552,1.483
	s3.208-0.289,3.235-0.369C251.128,412.571,251.371,411.043,250.885,410.5z M295.396,352.34c-0.288-1.15-2.948-2.516-1.654-3.307
	c1.294-0.791,0.431-2.301-1.294-1.941c-1.726,0.36-3.163,0.36-5.967-0.395c-2.804-0.755-9.079-6.264-9.08-6.265l0.596-0.53
	c0,0-8.196-9.49-11.504-12.222c-0.173-0.143-0.348-0.272-0.524-0.399c0.18-0.762,0.475-1.351,0.955-1.369
	c1.386-0.052,4.325,1.477,5.162,0.609c0.837-0.868,1.049-4.944,2.912-5.506c0.425-0.128,0.993,0.093,1.338-0.426
	c0.344-0.519-1.308-2.374-0.329-5.58c0.274-0.896,0.34-1.908,0.293-2.9c-0.046,0.012-0.102,0.015-0.149,0.026
	c1.194-0.286,2.147-0.774,2.69-1.52c1.342-1.845,2.097-4.865,2.097-4.865s-0.671,0.755-1.929,0.755c0,0,1.845-2.768,2.432-5.033
	c0.587-2.265,0-2.516,0-2.516s-1.51,1.677-3.69,1.761c-2.181,0.084-6.375-2.013-12.917-1.426c-6.542,0.587-10.652,4.781-11.323,9.31
	c-0.671,4.529,0.288,11.558,3.96,15.467h0.001c-0.049,0.684-0.117,1.344-0.191,1.953c-0.388,0.108-0.77,0.229-1.141,0.364
	l-13.085,11.791l2.831,2.105c-1.76,3.646-4.844,10.107-4.844,10.621c0,0.718,4.215,6.725,4.222,6.735
	c-0.247,1.007-0.492,1.971-0.726,2.847c-0.593,2.218-1.123,3.898-1.483,4.437c-0.173,0.26,0.111,0.58,0.733,0.935
	c-0.013-0.007-0.03-0.015-0.043-0.023c0,0-0.741,10.521,2.603,14.907l1.325,9.922l-4.669,15.564l5.946,0.755l8.196-11.324
	l3.186-8.988l4.728,0.955l9.988,20.111l3.197-0.724l-2.003,0.453l0.737,1.605l-0.51,0.469l0.688,2.709l8.042-0.958
	c0,0,1.333-0.75,0.729-1.667c-0.604-0.917-1.333-0.854-1.854-0.521c-0.521,0.333-1.959,0.458-2.604,0.229
	c-0.646-0.229-0.45-1.14-0.651-1.146c-0.045-0.001-0.254,0.031-0.544,0.079l-0.203-1.666l0.691-0.156l-1.402-18.765l-6.974-16.716
	c0,0,0,0,0,0c1.294-2.301-0.863-25.308-0.863-25.308l0.53-0.471c6.455,3.628,13.562,5.792,13.562,5.792s1.294,1.15,2.301,2.948
	c1.007,1.797,3.02,3.379,4.745,2.444S295.684,353.491,295.396,352.34z M473.766,217.285c-0.72-0.585-1.081,0-2.431,0
	c-1.351,0-1.666-0.54-2.476-0.405c-0.81,0.135-1.441,0.495-2.026,0.99c-0.585,0.495-2.799,0.27-2.799,0.27l-33.803-6.349
	l-2.751-2.356l-7.366,7.357l8.388-8.377l-12.477-10.092c-1.677-1.919-4.359-3.689-5.851-4.733l-1.078-0.872
	c-0.597-0.797-0.705-2.629-1.018-2.84c-0.076-0.051-0.924-0.369-2.169-0.823c0.007,0.002,0.014,0.005,0.021,0.008
	c-0.211-1.344-0.708-5.258,0.64-5.518c1.628-0.314,5.38,0.956,6.212-0.222c0.832-1.178,0.338-6.034,2.437-7.038
	c0.479-0.229,1.191-0.071,1.503-0.747c0.312-0.676-1.979-2.567-1.407-6.535c0.102-0.71,0.092-1.46,0.012-2.214
	c-0.001,0-0.001,0.001-0.002,0.001c0.114-0.069,0.19-0.118,0.19-0.118s4.963-1.755,5.921-5.845c0.959-4.09-1.138-7.834-3.447-8.234
	c-2.309-0.4-4.089,0.504-7.362-0.237c-3.273-0.741-12.105-2.995-16.55-0.058c-4.445,2.938-6.225,16.337-3.606,22.556
	c2.619,6.219,4.103,7.59,4.42,7.869c0.029,0.026,0.079,0.019,0.137-0.001c0,0,0,0,0,0c0.079,0.869,0.129,1.718,0.157,2.504
	c-0.997-0.353-1.631-0.577-1.631-0.577l-1.401,2.022c-0.412,0.404-0.938,0.871-1.629,1.414c-1.528,1.202-2.764,3.442-3.635,6.18
	l-9.558,13.789l1.931,1.118l-7.333,13.349l19.072,16.823c-0.071,0.61-0.147,1.224-0.243,1.854
	c-0.883,5.743-2.549,14.751-2.549,14.751l34.368,0.137l-34.368-0.137c0,0-2.288,8.24-2.31,13.82
	c-0.022,5.58-0.888,13.554-0.888,13.554l-8.865,19.159L351.4,341.931l0.854,0.288l-1.666,2.481l5.08,1.981l2.138-2.587l0.863,0.292
	l30.463-34.329l17.818-22.825l13.248,19.795l20.987,39.29l7.079-0.099l-5.205,0.073l1.124,2.221l3.82,0.017l-5.036-0.022
	l-0.053,12.087l5.238,0.023c0,0,0.734-1.931,1.298-1.928c0.564,0.002,2.658,0.415,4.426,1.309c1.769,0.894,6.037,1.557,8.779,1.086
	c2.742-0.471,4.196-1.19,4.281-2.318c0.086-1.128-1.522-1.941-1.522-1.941c-9.995,0.601-14.469-8.283-14.469-8.283l-1.439-0.006
	l-0.846-2.322l0.738-0.01l-12.671-47.116l-14.154-42.998c0,0-0.393-9.59-0.99-21.982c-0.214-4.451-0.649-9.72-1.191-14.794
	c0,0.001,0,0.002,0,0.003l8.074,4.469l35.39,0.045l2.481,0.119c0,0,0.63,0.27,1.576,0.72c0.945,0.45,1.531,0.09,3.061,0
	c1.531-0.09,3.016-0.585,3.467-2.206C474.891,220.841,474.486,217.87,473.766,217.285z M245.305,357.471
	c-0.014,0.055-0.027,0.112-0.041,0.167l0,0.001C245.278,357.584,245.292,357.525,245.305,357.471z M395.764,185.433
	c-0.206-0.073-0.398-0.141-0.581-0.206v0C395.365,185.291,395.56,185.36,395.764,185.433z M245.878,355.08
	c-0.191,0.814-0.383,1.612-0.573,2.39C245.495,356.693,245.687,355.894,245.878,355.08z M265.97,327.281L265.97,327.281
	L265.97,327.281L265.97,327.281z M62.526,509.947c-0.39-1.55-0.914-5.521,3.597-6.559c5.64-1.297,7.477,2.123,7.477,2.123
	s-2.755-8.964,1.574-11.677c4.329-2.713,9.051,0,9.051,0s-1.98-4.561,3.456-7.956v-59.628H37.466
	C28.636,462.177,41.289,499.589,62.526,509.947z"></path>
<path id="color_x5F_3" fill="#c8ffd4" d="M449.397,346.202l-8.212,0.114l-20.987-39.29l-13.248-19.795l-17.818,22.825
	l-30.463,34.329l-7.268-2.455l24.741-39.447l8.865-19.159c0,0,0.866-7.975,0.888-13.554c0.022-5.58,2.31-13.82,2.31-13.82
	l34.368,0.137l14.154,42.998L449.397,346.202z M164.638,453.539c-1.805-4.42-1.362-8.243-0.771-10.499
	c-0.73,0.022-14.993,0.611-16.117,13.752c0,0-0.052,0.706-0.056,1.717c0-0.002,0.56-4.616,5.469-5.266
	c4.91-0.651,8.045,3.963,8.696,8.104c0.649,4.128,0.244,6.636,0.242,6.651c0.077-0.182,0.113-0.292,0.113-0.292
	s0.577,0.577,1.642,0.222c0,0,5.871-1.139,8.474-5.457C172.328,462.471,167.537,460.637,164.638,453.539z M146.508,466.02
	c0,0-0.325-0.739-1.479-0.739s-1.982,2.159-2.425,3.904c-0.444,1.745,0.089,2.959,1.39,3.358c1.301,0.399,2.366-1.706,2.041-2.266
	c-0.325-0.559-0.651-1.358-0.739-2.512C145.206,466.612,146.508,466.02,146.508,466.02z M266.494,327.68
	c-3.307-2.732-7.19-2.445-10.353-1.294l-13.085,11.791l5.608,4.17c0,0-2.346,11.486-4.125,18.138
	c-0.593,2.218-1.123,3.898-1.483,4.437c-1.438,2.157,28.04,8.34,29.334,6.039c1.294-2.301-0.863-25.308-0.863-25.308l6.471-5.752
	C277.997,339.902,269.801,330.412,266.494,327.68z M356.662,347.069l-7.432-2.899l-4.392,11.261l4.88,1.903
	c0,0,1.378-1.538,1.904-1.333c0.526,0.205,2.331,1.342,3.661,2.812c1.33,1.47,5.074,3.623,7.802,4.168
	c2.728,0.545,4.343,0.397,4.828-0.625c0.485-1.022-0.724-2.358-0.724-2.358C357.645,356.967,356.662,347.069,356.662,347.069z
	 M465.413,356.824c-9.995,0.601-14.469-8.283-14.469-8.283l-7.978-0.035l-0.053,12.087l5.238,0.023c0,0,0.734-1.931,1.298-1.928
	c0.564,0.003,2.658,0.415,4.426,1.309c1.769,0.894,6.037,1.558,8.779,1.086c2.742-0.471,4.196-1.19,4.281-2.318
	C467.021,357.637,465.413,356.824,465.413,356.824z"></path>
<path id="color_x5F_2" fill="#c8ffd4" d="M250.885,410.5c0.485,0.544,0.243,2.072,0.216,2.152c-0.027,0.081-2.966,0.369-3.235,0.369
	c-0.27,0-6.525-1.294-6.552-1.483s0.701-2.966,0.809-3.128c0.108-0.162,0.683,0,0.683,0l3.981,0.583c0,0,0.162,0.037,0.404,0.36
	c0.243,0.324,0.809,0.898,1.375,0.682S250.4,409.956,250.885,410.5z M279.363,387.678l-6.974-16.716
	c-1.141,2.029-24.201-2.54-28.644-5.127c0,0-0.741,10.521,2.603,14.907l1.325,9.922l-4.669,15.564l5.946,0.755l8.196-11.324
	l3.186-8.988l4.728,0.955l9.988,20.112l5.716-1.294L279.363,387.678z M284.076,409.103c-0.521,0.333-1.958,0.458-2.604,0.229
	c-0.646-0.229-0.45-1.141-0.651-1.146c-0.201-0.005-3.558,0.625-3.558,0.625l-0.792,0.729l0.688,2.709l8.042-0.958
	c0,0,1.333-0.75,0.729-1.667S284.597,408.77,284.076,409.103z M420.112,216.792l8.388-8.377l-12.477-10.092
	c-1.677-1.919-4.359-3.689-5.851-4.733l-1.078-0.872c-0.597-0.797-0.704-2.629-1.018-2.84c-0.322-0.217-14.524-5.229-14.524-5.229
	s0.001,0.026-0.006,0.073l0.006-0.073l-1.401,2.022c-0.412,0.404-0.938,0.871-1.629,1.414c-1.528,1.202-2.764,3.442-3.635,6.18
	l-9.558,13.789l9.999,5.789c2.188,7.144,5.276,15.323,3.426,27.356c-0.883,5.743-2.549,14.751-2.549,14.751l34.368,0.137
	c0,0-0.393-9.59-0.99-21.982C421.333,228.912,420.784,222.602,420.112,216.792z"></path>
<path id="color_x5F_1" fill="#c8ffd4" d="M421.434,160.829c-0.959,4.09-5.921,5.845-5.921,5.845s-1.48,1-3.207,1.222
	c-1.727,0.223-6.519,0.054-7.347,1.177c-0.827,1.123,0.341,3.661,1.021,4.706c0.68,1.044-0.389,1.452-1.777,1.565
	c-1.388,0.113-1.863-0.61-1.329-2.383c0.534-1.773-0.94-5.083-2.524-3.95c-1.584,1.132-1.635,4.338-0.812,6.292
	c0.823,1.954,0.094,2.884-1.028,3.973c-1.122,1.089-3.306,3.726-3.623,3.448c-0.317-0.278-1.802-1.65-4.42-7.869
	c-2.619-6.219-0.838-19.618,3.606-22.556c4.445-2.938,13.277-0.684,16.55,0.058c3.273,0.741,5.053-0.163,7.362,0.237
	C420.296,152.995,422.393,156.739,421.434,160.829z M281.441,298.957c0,0-1.51,1.677-3.69,1.761
	c-2.181,0.084-6.375-2.013-12.917-1.426c-6.542,0.587-10.652,4.781-11.323,9.31c-0.671,4.529,0.288,11.558,3.96,15.467h1.492
	c0,0,0.671-1.292,0.587-2.718c-0.084-1.426-1.09-2.097-1.845-4.445c-0.755-2.349,1.929-3.858,3.019-2.181
	c1.09,1.678,1.845,3.271,4.529,3.271c0,0-1.761-3.271-1.174-4.781c0.587-1.51,1.594-1.761,5.62-1.09
	c4.026,0.671,7.8,0.336,9.142-1.51c1.342-1.845,2.097-4.865,2.097-4.865s-0.671,0.755-1.929,0.755c0,0,1.845-2.768,2.432-5.033
	C282.028,299.208,281.441,298.957,281.441,298.957z"></path>
</svg>