<?xml version="1.0" standalone="no"?>
<svg version="1.1" id="Layer_1" xmlns="http://www.w3.org/2000/svg" xmlns:xlink="http://www.w3.org/1999/xlink" x="0px" y="0px" width="595.279px" height="595.279px" viewBox="0 0.001 595.279 595.279" enable-background="new 0 0.001 595.279 595.279" xml:space="preserve">
<ellipse id="color_x5F_6" transform="matrix(0.9461 0.324 -0.324 0.9461 101.7748 -78.7295)" fill="#c8ffd4" cx="287.325" cy="266.282" rx="157" ry="105.459"></ellipse>
<path id="color_x5F_5" fill="#ffde84" d="M276.608,164.498c-0.049-0.079-0.109-0.14-0.16-0.215c0.451-2.253,0.461-4.63-0.047-7.02
	c-0.223-1.045-0.549-2.04-0.94-2.994c-0.223,0.243-0.457,0.483-0.701,0.718c-0.093,0.09-0.195,0.177-0.291,0.266
	c-0.155,0.143-0.307,0.287-0.469,0.426c-0.138,0.119-0.286,0.233-0.429,0.35c-0.13,0.105-0.255,0.212-0.389,0.315
	c-0.176,0.137-0.363,0.268-0.546,0.401c-0.109,0.079-0.213,0.16-0.325,0.237c-0.215,0.149-0.439,0.294-0.664,0.439
	c-0.087,0.056-0.17,0.114-0.259,0.169c-0.25,0.157-0.509,0.308-0.77,0.459c-0.069,0.04-0.135,0.081-0.205,0.121
	c-0.283,0.16-0.576,0.315-0.871,0.468c-0.051,0.026-0.1,0.054-0.151,0.081c-0.319,0.163-0.646,0.32-0.977,0.474
	c-0.03,0.014-0.06,0.029-0.09,0.043c-0.352,0.162-0.71,0.318-1.075,0.469c-0.012,0.005-0.024,0.011-0.037,0.016
	c-0.674,0.279-1.374,0.539-2.092,0.782c-0.422,0.143-0.865,0.266-1.301,0.396c-0.303,0.09-0.597,0.188-0.906,0.272
	c-0.514,0.139-1.047,0.257-1.579,0.377c-0.249,0.057-0.491,0.121-0.744,0.173c-0.543,0.112-1.103,0.204-1.661,0.296
	c-0.221,0.036-0.438,0.078-0.661,0.111c-0.654-0.569-1.498-0.926-2.433-0.926c-2.058,0-3.726,1.668-3.726,3.725
	c0,0.482,0.099,0.939,0.266,1.362c-0.603,0.359-1.218,0.707-1.852,1.033c-0.007,0.004-0.014,0.008-0.021,0.012
	c-0.595,0.306-1.202,0.598-1.823,0.873c-0.057,0.026-0.113,0.053-0.17,0.079c-0.565,0.248-1.143,0.48-1.728,0.702
	c-0.108,0.042-0.214,0.087-0.323,0.127c-0.679,0.25-1.367,0.484-2.069,0.697l-0.883,2.896l17.452,8.503c0,0,0.077,0.081,0.2,0.219
	c0,0,0.381-1.577,2.383-1.595c6.385-0.053,13.766-2.868,12.944-9.875c0.67-0.134,1.258-0.326,1.676-0.568
	C280.028,168.304,277.893,166.709,276.608,164.498z M271.125,166.436c-0.547,0.049-1.037-0.631-1.11-1.515
	c-0.07-0.886,0.319-1.643,0.861-1.691c0.547-0.049,1.039,0.631,1.107,1.514C272.052,165.631,271.664,166.388,271.125,166.436z
	 M318.192,201.78l0.212-5.491l-9.16-13.169l6.932-1.565c0.454-0.69,0.676-1.519,0.526-2.44c-0.431-2.645-3.201-4.272-5.714-4.113
	c-1.315,0.082-2.574,0.593-3.672,1.36c0.496-3.516,3.063-6.887,6.918-9.29c0.985,0.307-7.039-5.375-7.693-5.807l-0.098-0.064
	c-2.216,1.462-4.235,3.425-5.848,5.863c-0.116,0.176-0.234,0.349-0.354,0.52c-0.341,0.097-0.683,0.222-1.017,0.389
	c-2.281,1.155-4.94,1.332-3.966,3.258c0.218,0.43,0.607,0.913,1.095,1.388c-4.503,5.432-8.229,9.585-2.9,13.106
	c1.67,1.104,8.387,2.224,11.164,2.906l-3.318,9.908C309.282,191.445,315.309,196.814,318.192,201.78z M304.564,170.637
	c-0.509,0.73-1.288,1.07-1.736,0.767c-0.454-0.309-0.403-1.146,0.1-1.875c0.506-0.73,1.287-1.07,1.737-0.764
	C305.119,169.073,305.07,169.91,304.564,170.637z M294.276,220.734c0,0-2.412,4.007-5.758,1.752
	c-0.566-0.382-1.078-0.804-1.542-1.252c-1.465-1.415-2.438-3.112-2.978-4.788c-6.174-1.607-15.695-7.502-22.76-13.171
	c-3.363-2.699-6.172-5.347-7.792-7.456c-0.454-0.593-0.825-1.146-1.077-1.643c-1.426-2.783,3.218-11.529,9.328-8.522
	c0.061,0.029,0.132,0.071,0.196,0.108c0.844,0.477,2.081,1.532,3.482,2.87c4.717,4.504,11.324,12.251,11.324,12.251
	s4.688,4.351,8.278,8.493c0.253-0.167,4.346,0.713,7.034,2.197c2.482,1.371,4.88,3.033,5.48,4.288
	C298.196,217.344,294.276,220.734,294.276,220.734z M287.2,242.984c5.052,8.594-7.2,16.381-11.416,14.613
	c-0.752-0.313-1.6-0.792-2.513-1.389c-0.55-0.36-1.132-0.78-1.73-1.231c-7.632-5.753-18.896-18.587-26.003-29.893
	c-2.558-4.069-4.577-7.939-5.692-11.207c-3.297-0.789-6.733-2.662-9.303-5.919c-3.656-4.639,1.927-8.62,1.927-8.62
	s4.518-6.121,6.759-5.257c3.946,1.527,11.349,14.256,11.206,16.29c-0.025,0.342,18.49,15.346,29.289,25.063
	c3.654,3.288,6.428,5.973,7.297,7.276C287.081,242.802,287.15,242.899,287.2,242.984z M234.955,230.999
	c-0.307,1.233-0.718,2.482-1.264,3.738c-0.033,0.077-4.391,9.264-4.391,9.264l-20.628,6.434c0.125,0.467-2.149,7.432-2.149,7.432
	l-8.068-7.607c0,0,4.57-3.427,6.944-3.22c0.721-2.171,1.49-9.968,10.73-8.472c0,0-3.598-9.392-2.29-16.354
	c0.289-1.534,0.812-2.952,1.667-4.123c8.326-11.389,13.222-6.769,13.574-6.826C231.851,210.8,237.637,220.217,234.955,230.999z"></path>
<path id="color_x5F_3" fill="#c8ffd4" d="M561.664,479.096c3.225,0,3.225,5,0,5c-41.723,0-83.445,0-125.169,0
	c-128.125,0-256.251,0-384.377,0c-3.224,0-3.224-5,0-5c41.722,0,83.445,0,125.167,0
	C305.412,479.096,433.538,479.096,561.664,479.096L561.664,479.096z M432.769,411.012c1.075,8.141,0.86,12.048,0.86,12.048
	l4.983-0.905c0.755-4.962,0.607-10.002,0.31-15.019c-0.046-0.755-0.094-1.514-0.148-2.272c-0.219-2.558-0.513-5.106-0.886-7.646
	c-0.42-2.398-1-4.762-1.862-7.042c-0.435-1.148,1.403-1.64,1.833-0.505c2.104,5.563,2.55,11.579,2.963,17.465
	c0.343,4.877,0.434,9.815-0.237,14.66l3.797-0.689c0,0,4.517-24.095,0-31.909c-4.516-7.814-14.407-8.141-14.623,0
	C429.544,397.338,431.694,402.873,432.769,411.012z M447.409,421.786h8.467c6.202-4.948,11.46-7.51,16.788-13.434
	c5.445-6.055-1.956-12.625-10.609-10.063c-3.968,1.175-8.91,6.139-13.103,11.17c-0.309,3.058-0.882,6.077-1.605,9.067
	c1.92-1.951,4.208-3.556,6.391-5.252c4.4-3.421,8.684-7.206,12.564-11.205c0.854-0.881,2.196,0.464,1.343,1.344
	c-3.677,3.789-7.76,7.109-11.755,10.55c-1.067,0.919-2.196,1.762-3.313,2.612C450.84,418.298,449.115,420.033,447.409,421.786z
	 M405.759,408.67c5.328,5.924,10.586,8.486,16.788,13.434h7.569c-2.574-2.997-5.55-5.61-8.494-8.252
	c-3.788-3.399-7.344-7.187-11.527-10.106c-0.997-0.695-0.049-2.344,0.959-1.641c4.022,2.808,7.336,6.392,10.993,9.631
	c3.354,2.968,6.714,5.892,9.614,9.285c-0.876-3.7-1.074-7.44-1.458-11.243c-4.192-5.031-9.867-9.995-13.834-11.17
	C407.715,396.045,400.314,402.615,405.759,408.67z"></path>
<path id="color_x5F_2" d="M240.754,476.874c-0.146,0.032-0.293,0.048-0.438,0.048c-0.916,0-1.742-0.633-1.95-1.564l-6.297-28.212
	H124.249l-6.297,28.212c-0.208,0.932-1.034,1.564-1.95,1.564c-0.145,0-0.291-0.016-0.438-0.048c-1.078-0.241-1.757-1.31-1.517-2.388
	l23.58-105.638c1.162,0.256,2.607,0.176,4.166-0.302l-16.651,74.599h106.034l-17.384-77.879c1.263,0.285,2.391,0.252,3.262-0.266
	c0.245-0.146,0.459-0.331,0.657-0.537l24.559,110.022C242.51,475.564,241.832,476.633,240.754,476.874z M304.665,168.764
	c-0.45-0.306-1.231,0.033-1.737,0.764c-0.503,0.73-0.554,1.567-0.1,1.875c0.448,0.304,1.228-0.037,1.736-0.767
	C305.07,169.91,305.119,169.073,304.665,168.764z M356.956,170.182c4.226-4.972,4.161-11.969-0.145-15.626
	c-4.304-3.658-11.218-2.591-15.444,2.381c-1.406,1.656-2.326,3.537-2.785,5.443c-1.127-1.495-2.602-3.015-4.541-4.548l-0.046-0.031
	c-0.149-0.106-0.31-0.212-0.47-0.317c-3.184-2.105-2.328-0.965-5.204-2.695c-0.563-0.338-1.271-0.791-2.185-1.394
	c-3.982-2.657-5.153-6.653-8.524-8.88c-4.56-3.015-10.733-1.702-13.787,2.92c-3.036,4.592-1.864,10.721,2.613,13.761l0.005,0.004
	l0.098,0.064c0.654,0.432,8.679,6.113,7.693,5.807c-3.855,2.403-6.422,5.774-6.918,9.29c1.098-0.767,2.356-1.278,3.672-1.36
	c2.513-0.16,5.283,1.468,5.714,4.113c0.149,0.921-0.072,1.75-0.526,2.44l-6.932,1.565l9.16,13.169
	c4.895-2.203,15.549-12.07,19.381-16.253c0.425,0.263,0.866,0.481,1.319,0.649c-0.381,2.771,0.512,5.557,2.657,7.38
	c3.498,2.973,8.987,2.26,12.26-1.591c3.272-3.851,3.089-9.383-0.409-12.356c-0.278-0.236-0.573-0.441-0.874-0.631
	C354.282,172.722,355.734,171.622,356.956,170.182z M270.876,163.23c-0.542,0.048-0.932,0.806-0.861,1.691
	c0.073,0.883,0.563,1.563,1.11,1.515c0.539-0.048,0.927-0.805,0.858-1.692C271.915,163.861,271.423,163.181,270.876,163.23z
	 M246.781,168.988c0.584-0.222,1.164-0.453,1.728-0.702c0.058-0.025,0.113-0.053,0.17-0.079c0.62-0.277,1.229-0.566,1.823-0.873
	c0.007-0.004,0.014-0.008,0.021-0.012c0.632-0.327,1.25-0.671,1.852-1.031c-0.167-0.423-0.266-0.882-0.266-1.365
	c0-2.057,1.668-3.725,3.726-3.725c0.938,0,1.785,0.359,2.44,0.931c3.257-0.484,6.275-1.312,8.936-2.411
	c0.013-0.005,0.025-0.011,0.037-0.016c0.365-0.151,0.724-0.308,1.075-0.469c0.03-0.014,0.06-0.029,0.09-0.043
	c0.332-0.154,0.658-0.311,0.977-0.474c0.051-0.026,0.1-0.054,0.151-0.081c0.295-0.153,0.587-0.308,0.871-0.468
	c0.07-0.04,0.136-0.081,0.205-0.121c0.261-0.151,0.52-0.303,0.77-0.459c0.088-0.056,0.172-0.113,0.259-0.169
	c0.225-0.145,0.449-0.29,0.664-0.439c0.111-0.078,0.216-0.158,0.325-0.237c0.184-0.133,0.37-0.265,0.546-0.401
	c0.134-0.104,0.26-0.21,0.389-0.315c0.143-0.117,0.291-0.231,0.429-0.35c0.162-0.14,0.314-0.284,0.469-0.426
	c0.096-0.089,0.198-0.176,0.291-0.266c0.244-0.235,0.478-0.475,0.701-0.718c-3.136-7.636-11.358-12.187-19.717-10.406
	c-9.405,2.003-15.403,11.252-13.4,20.657c0.405,1.903,1.12,3.658,2.061,5.244l-0.014,0.047c0.702-0.213,1.392-0.447,2.069-0.697
	C246.568,169.075,246.673,169.029,246.781,168.988z M273.182,156.345c-0.176,0.136-0.363,0.268-0.546,0.401
	C272.819,156.614,273.006,156.482,273.182,156.345z M274.76,154.988c-0.093,0.09-0.195,0.177-0.291,0.266
	C274.565,155.165,274.666,155.078,274.76,154.988z M271.646,157.422c0.225-0.145,0.449-0.29,0.664-0.439
	C272.095,157.133,271.871,157.277,271.646,157.422z M273.571,156.03c0.143-0.117,0.291-0.231,0.429-0.35
	C273.862,155.799,273.714,155.913,273.571,156.03z M268.414,159.194c0.332-0.154,0.658-0.311,0.977-0.474
	C269.072,158.883,268.745,159.04,268.414,159.194z M248.51,168.285c-0.564,0.249-1.144,0.48-1.728,0.702
	C247.367,168.766,247.944,168.533,248.51,168.285z M270.617,158.051c0.261-0.151,0.52-0.303,0.77-0.459
	C271.137,157.748,270.878,157.9,270.617,158.051z M246.459,169.115c-0.679,0.25-1.367,0.484-2.069,0.697
	C245.092,169.599,245.781,169.365,246.459,169.115z M250.503,167.334c-0.594,0.307-1.203,0.596-1.823,0.873
	C249.301,167.931,249.908,167.64,250.503,167.334z M270.413,158.171c-0.284,0.16-0.575,0.315-0.871,0.468
	C269.837,158.487,270.13,158.331,270.413,158.171z M267.249,159.706c0.365-0.151,0.724-0.308,1.075-0.469
	C267.972,159.398,267.614,159.554,267.249,159.706z M293.919,388.698c-3.869,8.419-1.531,32.447,1.294,52.053
	c2.181,15.169,4.663,22.691,4.777,23.3c0.007,0.015,13.786-37.023,15.592-48.101c7.957,4.433,17.224,8.862,25.724,12.678
	c13.978,6.281,25.883,10.891,26.458,11.12c0.017,0.002,0.021,0.005,0.021,0.005s-45.465-51.174-52.342-53.67
	c-1.655-0.603-3.275-0.837-4.832-0.797c7.313-17.592,15.102-42.733,15.102-42.733s23.321-7.5,11.5-32.513h-52.094
	c-5.985,18.595,2.852,56.474,9.418,77.71C294.286,388.045,294.075,388.359,293.919,388.698z" fill="#b8e8fc"></path>
<path id="color_x5F_1" fill="#fd841f" d="M474.525,474.922h-70.627v-53.136h70.627V474.922z M213.318,333.104
	c-2.116-7.091-8.358-4.645-29.318-5.75c-14.123-0.745-18.668-13.811-24-29.714s-9.993-7.624-10.783-9.22S137,357.001,135,365.001
	c-0.505,2.021,0.652,3.413,2.627,3.848c1.162,0.256,2.607,0.176,4.166-0.302c1.036-0.317,2.121-0.805,3.207-1.496
	c5.5-3.5,11-12.05,11-12.05h42.456c0,0,9.272,8.896,15.336,10.266c1.263,0.285,2.391,0.252,3.262-0.266
	c0.245-0.146,0.459-0.331,0.657-0.537C221.616,360.415,216.874,345.015,213.318,333.104z M299.99,464.051
	c-12.897,8.283-22.711,11.381-23.222,11.735c-0.006,0.015,0.038,0,0.038,0h30.085L299.99,464.051z M368.243,440.067
	c0.593,15.317-1.717,25.345-1.671,25.966c0.009,0.012,0.02-0.033,0.02-0.033l15.267-25.924L368.243,440.067z M285.116,310.043
	C279.6,320.96,281.659,318.161,285.116,310.043L285.116,310.043z M230.543,207.958c-3.656-4.639,1.927-8.62,1.927-8.62
	s4.518-6.121,6.759-5.257c3.946,1.527,11.349,14.256,11.206,16.29c-0.033,0.458-0.167,0.881-0.382,1.271
	c1.604,1.191,3.234,2.481,4.777,3.746c2.177-3.133,4.435-7.122,6.409-12.111c-3.363-2.699-6.172-5.347-7.792-7.456
	c-0.454-0.593-0.825-1.146-1.077-1.643c-1.426-2.783,3.218-11.529,9.328-8.522c0.061,0.029,0.132,0.071,0.196,0.108
	c0.844,0.477,2.081,1.532,3.482,2.87c0.648-3.516-3.502-6.403-4.218-7.203c-0.123-0.138-0.2-0.219-0.2-0.219l-17.452-8.503
	c0,0-1.066,15.401-12.007,22.405c-11.89,7.611-21.787,18.128-17.659,27.101c0.289-1.534,0.812-2.952,1.667-4.123
	c8.326-11.389,13.222-6.769,13.574-6.826c2.769-0.464,8.555,8.953,5.873,19.734c5.995-2.012,10.58-5.913,10.582-5.915
	c-2.558-4.069-4.577-7.939-5.692-11.207C236.549,213.088,233.112,211.216,230.543,207.958z M328.55,281.142
	c0.027-25.105-1.288-58.281-9.282-77.216c-0.286-0.678-0.646-1.408-1.075-2.146c-2.883-4.966-8.91-10.335-16.893-3.24
	c-2.863,2.544-5.977,6.688-9.288,13.034c2.482,1.371,4.88,3.033,5.48,4.288c0.704,1.483-3.216,4.873-3.216,4.873
	s-2.412,4.007-5.758,1.752c-0.566-0.382-1.078-0.804-1.542-1.252c-2.358,4.378-4.869,9.341-7.253,14.199
	c3.654,3.288,6.428,5.973,7.297,7.276c0.061,0.092,0.13,0.189,0.18,0.274c5.052,8.594-7.2,16.381-11.416,14.613
	c-0.752-0.313-1.6-0.792-2.513-1.389c-0.55-0.36-1.132-0.78-1.73-1.231c1.201,2.138,4.72,6.308,13.575,5.148
	c1.803-0.236,4.724-1.2,5.716-2.746c1.096,2.616,1.445,11.965,2.152,15.095c2.39,10.584-3.738,27.872-7.868,37.569
	c0-0.001,0.001-0.002,0.002-0.003h52.094C337.212,310.04,328.534,294.407,328.55,281.142z"></path>
</svg>