<?xml version="1.0" standalone="no"?>
<svg version="1.1" id="Layer_1" xmlns="http://www.w3.org/2000/svg" xmlns:xlink="http://www.w3.org/1999/xlink" x="0px" y="0px" width="600px" height="600px" viewBox="-2.36 120.945 600 600" enable-background="new -2.36 120.945 600 600" xml:space="preserve">
<path id="color_x5F_7" fill="#b8e8fc" d="M502.467,617.91c0,1.771-1.435,3.204-3.204,3.204H93.942c-1.77,0-3.204-1.435-3.204-3.204
	c0-1.769,1.436-3.204,3.204-3.204h41.357h5.877h6.149h7.48h344.457C501.033,614.706,502.467,616.141,502.467,617.91z"></path>
<path id="color_x5F_6" fill="#c8ffd4" d="M288.956,306.99l-13.597-1.334c-0.852-4.547-1.728-8.089-2.603-11.656
	c-0.831-3.387-1.662-6.797-2.471-11.115c-0.506-2.698-0.932-5.766,0.734-7.948c0.903-1.183,2.323-1.933,3.069-3.222
	c0.596-1.03,0.663-2.207,0.61-3.415c-0.038-0.91-0.144-1.837-0.15-2.733c-0.049-6.092,5.767-11.579,11.846-11.175
	c2.898,0.193,5.617,1.509,8.502,1.842c4.739,0.548,9.344-1.579,14.073-2.204c0.391-0.052,0.786-0.087,1.183-0.113
	c2.117-0.141,4.283,0.114,6.08,1.205c2.135,1.295,3.539,4.014,2.705,6.368c-0.371,1.048-1.137,1.947-1.35,3.038
	c-0.84,4.308,6.9,6.578,6.201,10.911c-0.354,2.185-2.747,3.367-4.899,3.885c-2.152,0.518-4.565,0.839-6.02,2.508
	c-1.271,1.459-1.537,3.696-3.082,4.86c-1.341,1.009-3.194,0.875-4.795,1.374l-1.64-15.512l-4.551,0.481l0.091,5.172l-3.722,2.586
	l-0.789,9.237l-0.577,0.048c-0.782-0.859-1.903-1.402-3.156-1.378c-2.305,0.044-4.138,1.948-4.094,4.253l0.047,2.451
	c0.044,2.305,1.948,4.138,4.253,4.094c0.608-0.012,1.181-0.159,1.696-0.403L288.956,306.99z"></path>
<path id="color_x5F_5" fill="#fdfdbd" d="M303.392,387.14c2.208,0.334,4.431,0.961,6.763,1.603
	c3.52,0.969,7.293,1.943,11.634,1.93c0.008-0.859,0.09-1.688,0.239-2.489l7.411,1.49c0.662,0.138,1.546-0.198,1.973-0.752
	l6.084-7.575c-0.438,2.711-1.457,5.396-3.166,7.344c-1.69,3.213-3.978,6.098-6.758,8.492c0.005,0.014,0.007,0.023,0.011,0.036
	c-5.626,2.259-11.907,4.111-18.5,5.943c-1.648,0.458-3.314,0.916-4.997,1.378C303.707,398.81,303.46,392.96,303.392,387.14z
	 M256.403,599.282l3.514-2.57l0.512-2.728l-14.054-0.033l-0.121,7.132l6.09-0.322C253.774,600.684,255.193,600.167,256.403,599.282z
	 M286.366,601.178l6.025-0.323c1.416-0.076,2.738-0.593,3.781-1.479l3.03-2.57v-2.73l-14.054-0.033L286.366,601.178z
	 M296.772,311.23c5.829-0.616,10.055-5.84,9.438-11.669l-0.283-2.674l-0.932-8.821l-1.64-15.512l-4.551,0.481l0.091,5.172
	l-3.722,2.586l-0.789,9.237l-0.577,0.048c-0.782-0.859-1.902-1.402-3.156-1.378c-2.305,0.044-4.138,1.948-4.094,4.253l0.047,2.451
	c0.044,2.305,1.948,4.138,4.253,4.094c0.608-0.012,1.181-0.159,1.696-0.403l-3.598,7.894l-13.597-1.334l-1.383,9.193
	c6.21-0.567,13.094,0.869,19.162,4.308l1.171-7.784L296.772,311.23z M358.287,308.604c0.366-0.98,0.319-2.069,0.126-3.098
	c-0.615-3.272-1.942-7.244-4.412-9.418c-0.778-0.685-1.667-1.196-2.686-1.444c-0.044-0.472-0.095-0.959-0.325-1.372
	c-0.231-0.413-0.697-0.735-1.163-0.646c-0.508,0.097-0.789,0.604-0.956,1.111c-0.023,0.071-0.052,0.142-0.071,0.212
	c-0.283,1.048-0.576,2.872-0.967,3.997c-0.069,0.199-0.14,0.382-0.216,0.529c-0.542,0.039-0.981-0.552-1.548-0.258
	c-0.893,0.461-0.693,2.076-0.483,2.829c0.18,0.646,0.386,1.279,0.615,1.902c0.072,0.195,0.147,0.388,0.225,0.581
	c0.587,1.461,1.339,2.837,2.313,4.079c0.122,0.156,0.238,0.314,0.368,0.465l-0.368,0.939l-13.474,34.424l-14.876-8.714
	l-6.612,20.456l23.033,7.64c3.725,1.235,7.818,0.563,10.95-1.801c2.648-1.998,4.347-5.008,4.687-8.307l1.596-15.491l2.772-26.897
	C357.489,309.971,358.018,309.324,358.287,308.604z"></path>
<path id="color_x5F_4" fill="#b1afff" d="M157.707,256.302v-21.271c0-6.6,5.399-12,12-12h32.932c4.339,0,8.147,2.342,10.256,5.816
	l-24.301,21.776l-10.162-11.339l-5.656,5.657L186.232,257l2.361,2.117L190.49,257l23.393-26.104
	c0.479,1.292,0.755,2.681,0.755,4.135v21.271c0,6.6-5.4,12-12.001,12h-32.931C163.107,268.302,157.707,262.902,157.707,256.302z
	 M253.223,256.302c0,6.6,5.4,12,12,12h9.479c-0.039-0.91-0.145-1.837-0.151-2.733c-0.049-6.092,5.767-11.579,11.846-11.175
	c2.898,0.193,5.617,1.509,8.502,1.842c4.739,0.548,9.344-1.579,14.073-2.204c0.391-0.052,0.786-0.087,1.183-0.113v-5.3v-0.517
	v-13.071c0-6.6-5.399-12-11.999-12h-32.932c-6.6,0-12,5.4-12,12v18.047v0.58V256.302L253.223,256.302z M348.74,256.302
	c0,6.6,5.399,12,12,12h16.532h1.277h15.121c6.601,0,12.001-5.4,12.001-12v-21.271c0-6.6-5.4-12-12.001-12H360.74
	c-6.601,0-12,5.4-12,12V255.6v0.61V256.302L348.74,256.302z M456.255,268.302h32.931c6.601,0,12.001-5.4,12.001-12v-21.271
	c0-6.6-5.4-12-12.001-12h-32.931c-6.601,0-12,5.4-12,12v21.271C444.255,262.902,449.655,268.302,456.255,268.302z M214.64,306.001
	c0-6.6-5.4-12-12-12h-22.593h-0.875h-9.464c-6.601,0-12,5.4-12,12v21.271c0,6.6,5.399,12,12,12h28.908h0.555h3.47
	c6.6,0,12-5.4,12-12v-3.817v-0.506L214.64,306.001L214.64,306.001z M310.155,306.001c0-3.64-1.647-6.909-4.228-9.114l0.283,2.674
	c0.616,5.829-3.61,11.053-9.438,11.669l-2.461,0.143l-1.171,7.784c1.688,0.957,3.31,2.071,4.837,3.333l12.03,6.564
	c0.088-0.583,0.147-1.175,0.147-1.782V306.001L310.155,306.001z M267.979,316.089c1.88-0.654,3.905-1.049,5.999-1.24l1.383-9.193
	c-0.852-4.547-1.728-8.089-2.603-11.656h-7.534c-4.362,0-8.188,2.366-10.289,5.871c-0.101,0.169-0.206,0.335-0.299,0.509
	c-0.898,1.68-1.411,3.592-1.411,5.62v21.271c0,1.364,0.242,2.671,0.666,3.896C256.963,323.767,261.354,318.395,267.979,316.089z
	 M349.107,308.071c-0.13-0.151-0.246-0.31-0.368-0.465v1.404L349.107,308.071z M374.379,329.398l-2.361-2.117l-13.456-12.059
	l5.656-5.657l10.162,11.339l26.934-24.136c-2.08-1.726-4.745-2.768-7.643-2.768H360.74c-2.493,0-4.813,0.772-6.737,2.087
	c2.47,2.174,3.797,6.146,4.412,9.418c0.193,1.029,0.24,2.117-0.126,3.098c-0.269,0.721-0.799,1.367-1.471,1.716l-2.772,26.897
	c1.916,1.296,4.222,2.055,6.695,2.055h32.931c0.128,0,0.25-0.015,0.377-0.019c0.163-0.005,0.326-0.013,0.488-0.025
	c6.199-0.449,11.136-5.648,11.136-11.956V306c0-3.087-1.191-5.902-3.124-8.034l-26.271,29.314L374.379,329.398z M456.255,339.272
	h32.931c6.601,0,12.001-5.4,12.001-12v-21.271c0-6.6-5.4-12-12.001-12h-32.931c-6.601,0-12,5.4-12,12v21.271
	C444.255,333.873,449.655,339.272,456.255,339.272z M202.64,410.243c6.6,0,12-5.4,12-12v-21.271c0-6.6-5.4-12-12-12h-19.781h-0.482
	h-12.668c-6.601,0-12,5.4-12,12v21.271c0,6.6,5.399,12,12,12h0.72h0.431H202.64z M304.368,408.482
	c2.058-1.258,3.712-3.109,4.715-5.32c-1.648,0.458-3.314,0.916-4.997,1.378C304.173,405.861,304.267,407.176,304.368,408.482z
	 M303.392,387.14c2.208,0.334,4.431,0.961,6.763,1.603v-11.771c0-4.481-2.492-8.404-6.156-10.464
	C303.482,373.154,303.309,380.123,303.392,387.14z M360.74,410.243h32.931c6.601,0,12-5.4,12-12v-21.271c0-6.6-5.399-12-12-12
	H360.74c-6.601,0-12,5.4-12,12v21.271C348.74,404.843,354.139,410.243,360.74,410.243z M489.188,410.243c6.6,0,12-5.4,12-12v-21.271
	c0-1.723-0.375-3.36-1.036-4.845l-24.602,27.452l-1.896,2.117l-2.362-2.117l-13.456-12.059l5.657-5.657l10.162,11.339l25.516-22.866
	c-2.157-3.228-5.83-5.365-9.98-5.365h-29.597h-0.6h-2.738c-6.601,0-12,5.4-12,12v21.271c0,6.6,5.399,12,12,12h11.352h0.503
	L489.188,410.243L489.188,410.243L489.188,410.243z M169.707,481.214h16.599h0.418h15.916c6.6,0,12-5.4,12-12v-21.271
	c0-1.757-0.393-3.424-1.078-4.931l-25.246,28.172l-1.897,2.117l-2.362-2.117l-13.456-12.06l5.657-5.657l10.162,11.34l26.21-23.488
	c-2.155-3.233-5.833-5.376-9.987-5.376h-31.04h-0.428h-1.465c-6.6,0-12,5.399-12,12v21.271
	C157.707,475.813,163.107,481.214,169.707,481.214z M306.698,477.612c2.133-2.169,3.456-5.136,3.456-8.398v-21.271
	c0-3.667-1.671-6.96-4.284-9.166C306.448,451.668,306.822,464.689,306.698,477.612z M253.223,469.214
	c0,3.438,1.474,6.543,3.812,8.735c-1.196-7.909-2.704-15.884-3.812-23.857V469.214z M348.74,469.214c0,6.6,5.399,12,12,12h32.931
	c6.601,0,12-5.4,12-12v-21.271c0-6.601-5.399-12-12-12H360.74c-6.601,0-12,5.399-12,12V469.214z M489.188,481.214
	c6.6,0,12-5.4,12-12v-21.271c0-6.601-5.4-12-12-12h-21.629h-0.515h-10.788c-6.601,0-12,5.399-12,12v21.271c0,6.6,5.399,12,12,12
	h0.019h0.639H489.188z M317.677,386.356l10.919,2.195c0.662,0.138,1.545-0.198,1.972-0.752l15.635-19.466
	c0.336-0.436,0.075-1.09-0.373-1.418c-0.121-0.089-0.253-0.158-0.395-0.188l-11.134-2.597c-0.55-0.281-1.343-0.06-1.771,0.494
	l-15.44,20.008c-0.074,0.096-0.117,0.21-0.147,0.328C316.803,385.52,317.13,386.241,317.677,386.356z M292.393,600.854l-6.025,0.323
	l-1.362,0.072c0,0-1.296,3.431-2.201,7.503c-0.682-0.339-1.413-0.599-2.19-0.76l-6.811-1.408c-3.531-0.729-7.633-1.886-9.481-4.863
	l-3.466-5.695l-0.938,0.687l-3.514,2.57c-1.21,0.885-2.629,1.401-4.06,1.478l-6.09,0.322l-1.376,0.073c0,0-3.805,6.709-5.341,12.508
	l47.628,0.112l42.476,0.1l-0.269-0.466c-1.59-2.747-4.309-4.71-7.363-5.318l-7.073-1.409c-3.667-0.73-7.983-1.888-10.389-4.867
	l-4.533-5.698l-0.81,0.688l-3.03,2.57C295.13,600.262,293.809,600.777,292.393,600.854z"></path>
<path id="color_x5F_3" fill="#b8e8fc" d="M329.439,389.674l-7.411-1.49l-3.508-0.705c-0.662-0.138-2.003-1.966-1.576-2.52l0,0
	c-0.14,0.56,0.188,1.282,0.734,1.396l10.919,2.195c0.662,0.138,1.545-0.198,1.973-0.752l15.634-19.466
	c0.336-0.436,0.075-1.09-0.373-1.418h0.002c0.662,0.138,1.64,1.988,1.213,2.542l-9.55,11.891l-6.084,7.575
	C330.985,389.476,330.101,389.812,329.439,389.674z M345.721,285.626c-0.55,0.142-0.88,0.702-0.738,1.252l2.852,11.068
	c0.391-1.124,0.684-2.949,0.967-3.997c0.02-0.07,0.047-0.141,0.071-0.212l-1.9-7.372
	C346.831,285.815,346.27,285.484,345.721,285.626z M178.433,239.284l-5.656,5.657L186.233,257l2.361,2.117l1.897-2.117
	l23.394-26.104l13.362-14.912l-14.353,12.863l-24.301,21.776L178.433,239.284z M401.314,296.769l-26.934,24.136l-10.162-11.339
	l-5.656,5.657l13.456,12.059l2.361,2.117l1.897-2.117l26.27-29.314l6.706-7.484l0.405-0.452l3.374-3.765l-3.791,3.397l-0.459,0.411
	L401.314,296.769z M176.255,453.469l-5.657,5.656l13.456,12.06l2.362,2.117l1.897-2.117l25.246-28.172l11.509-12.844l-12.443,11.151
	l-26.21,23.488L176.255,453.469z M463.49,381.864l-5.657,5.657l13.456,12.059l2.361,2.117l1.897-2.117l24.602-27.452l12.155-13.563
	l-13.138,11.773l-25.516,22.866L463.49,381.864z"></path>
<path id="color_x5F_2" fill="#c8ffd4" d="M141.176,614.706h-5.877c-6.531-4.158-12.193-9.676-16.514-16.104
	c0.797,0.22,1.594,0.436,2.392,0.648c2.521,0.674,3.598-3.233,1.077-3.906c-2.192-0.585-4.374-1.191-6.53-1.88
	c-1.154-2.192-2.17-4.458-3.014-6.79c-0.395-1.088-0.739-2.191-1.062-3.303c2.29,0.96,4.586,1.9,6.976,2.604
	c2.507,0.736,3.576-3.173,1.076-3.907c-3.168-0.933-6.176-2.28-9.219-3.539c-0.706-3.651-1.056-7.371-1.034-11.092
	c1.251,0.505,2.525,0.973,3.815,1.433c2.461,0.877,3.52-3.037,1.077-3.907c-1.578-0.562-3.177-1.121-4.721-1.787
	c0.496-6.12,1.981-12.159,4.448-17.783c5.243,2.891,10.178,6.433,14.504,10.555c-1.23,1.477-2.462,2.954-3.692,4.431
	c-1.658,1.99,1.192,4.871,2.865,2.865c1.223-1.468,2.445-2.936,3.669-4.403c2.907,3.161,5.46,6.62,7.544,10.354
	c-1.846,2.37-3.633,4.784-5.46,7.169c-1.585,2.068,1.933,4.089,3.499,2.045c1.326-1.732,2.631-3.482,3.956-5.215
	c0.396,0.893,0.772,1.795,1.114,2.716c1.257,3.388,2.065,6.896,2.499,10.463c-1.254,1.488-2.49,2.989-3.665,4.544
	c-0.659,0.874-0.139,2.267,0.728,2.772c1.038,0.606,2.111,0.148,2.771-0.728c0.175-0.229,0.362-0.448,0.539-0.677
	C145.013,599.837,143.574,607.496,141.176,614.706z M165.797,604.784c-0.241,0.049-0.484,0.087-0.725,0.141
	c-0.915,0.2-1.865-0.097-2.202-1.066c-0.281-0.809,0.152-2.001,1.065-2.202c1.624-0.356,3.26-0.645,4.898-0.915
	c1.696-2.555,3.118-5.28,4.182-8.175c0.289-0.787,0.545-1.582,0.784-2.381c-1.821,0.39-3.638,0.802-5.46,1.189
	c-2.15,0.458-3.312-2.805-1.136-3.268c2.508-0.534,5.008-1.108,7.519-1.623c0.72-3.579,0.981-7.239,0.849-10.903
	c-1.608,0.274-3.217,0.548-4.823,0.822c-2.198,0.374-2.45-3.077-0.271-3.449c1.618-0.276,3.236-0.551,4.854-0.827
	c-0.521-5.075-1.758-10.109-3.557-14.894c-4.722,2.28-9.034,5.376-12.752,9.071c0.634,1.289,1.359,2.537,2.071,3.778
	c1.104,1.92-1.756,3.872-2.866,1.938c-0.582-1.015-1.148-2.024-1.681-3.047c-2.079,2.402-3.915,5.011-5.482,7.771
	c1.277,2.505,2.48,5.049,4.02,7.411c1.214,1.864-1.649,3.807-2.866,1.938c-1.16-1.781-2.129-3.666-3.082-5.56
	c-0.407,0.899-0.796,1.807-1.144,2.732c-0.745,1.98-1.344,4.015-1.812,6.078c1.018,1.643,2.097,3.245,3.195,4.842
	c1.263,1.835-1.604,3.773-2.866,1.938c-0.4-0.581-0.797-1.164-1.191-1.748c-0.791,6.817-0.105,13.802,2.005,20.329h7.48
	C158.874,611.857,162.64,608.55,165.797,604.784z M137.378,482.365c-7.757-19.521-12.026-40.793-12.026-63.044
	c0-32.604,9.162-63.106,25.041-89.075c-0.177-0.098-0.346-0.204-0.509-0.316c-16.307,26.655-25.032,57.35-25.032,89.391
	c0,21.999,4.119,43.363,11.974,63.224C137.004,482.478,137.188,482.418,137.378,482.365z M408.783,290.074l0.459-0.411
	c-9.516-8.292-19.804-15.434-30.692-21.361h-1.277C388.6,274.378,399.156,281.705,408.783,290.074z M449.851,342.955
	c0.18-0.088,0.369-0.166,0.563-0.238c-8.18-16.383-19.039-31.515-32.364-44.841c-2.722-2.721-5.523-5.33-8.391-7.844l-0.404,0.452
	C425.959,305.111,439.821,322.909,449.851,342.955z M348.74,256.21v-0.61c-12.429-3.942-25.354-6.472-38.585-7.498v0.517
	C323.503,249.669,336.42,252.262,348.74,256.21z M253.223,253.657v-0.58c-27.516,7.13-52.879,21.052-74.052,40.923h0.875
	C200.448,275.01,225.47,260.933,253.223,253.657z M468.353,419.321c0-3.039-0.086-6.065-0.241-9.078h-0.504
	c0.158,3.007,0.245,6.032,0.245,9.078c0,5.607-0.279,11.15-0.809,16.621h0.515C468.083,430.452,468.353,424.907,468.353,419.321z
	 M456.153,355.53c-0.172,0.087-0.35,0.167-0.533,0.24c1.213,3.025,2.332,6.096,3.375,9.202h0.6
	C458.535,361.791,457.396,358.64,456.153,355.53z M244.655,556.113c-0.036,0.225-0.062,0.451-0.096,0.677
	c-1.299,8.466-1.662,17.017-1.162,25.297c-43.917-14.393-80.069-46.085-100.341-86.999c-0.169,0.105-0.347,0.202-0.53,0.293
	c8.209,16.592,19.158,31.913,32.632,45.385c19.477,19.478,42.813,33.688,68.279,41.94c0.251,3.817,0.668,7.58,1.292,11.24
	l1.646,0.004l14.054,0.033l1.37,0.003c0.362-2.08,0.728-4.149,1.095-6.218c4.517,0.894,9.082,1.612,13.69,2.145
	c0.009-0.17,0.023-0.339,0.044-0.507c-4.607-0.538-9.151-1.28-13.641-2.177c1.492-8.404,3.034-16.724,4.773-24.992
	c0.043-0.204,0.088-0.408,0.131-0.613c1.287-6.084,2.688-12.144,4.248-18.195c0.036-0.139,0.07-0.276,0.106-0.416
	c1.752-6.764,3.707-13.52,5.957-20.289c1.133-3.409,2.188-6.853,3.201-10.316c0.08,4.947-0.425,9.825-1.76,14.612
	c-1.498,5.373-2.462,11.011-2.957,16.781c-0.012,0.146-0.029,0.29-0.04,0.436c-0.321,3.936-0.429,7.932-0.314,11.953
	c0.006,0.225,0.022,0.451,0.03,0.677c0.432,12.592,2.921,25.384,7.143,37.173l1.646,0.004l14.054,0.033l1.37,0.003
	c-0.015-1.021-0.023-2.035-0.036-3.054c44.403-0.992,86-18.747,117.512-50.258c17.23-17.23,30.35-37.479,38.863-59.552h-0.639
	c-24.415,62.771-84.822,107.702-155.742,109.308c-0.114-9.499-0.166-18.887,0.044-28.208c0.005-0.204,0.011-0.409,0.016-0.613
	c0.127-5.322,0.346-10.625,0.68-15.921c0.01-0.149,0.021-0.298,0.03-0.448c0.485-7.521,1.21-15.026,2.297-22.549
	c0.576-3.99,1.057-8.021,1.457-12.085c0.018-0.168,0.036-0.335,0.052-0.503c0.9-9.271,1.364-18.712,1.542-28.221
	c0.027-1.452,0.036-2.908,0.049-4.363c0.123-12.923-0.252-25.944-0.829-38.836c-0.007-0.156-0.016-0.313-0.022-0.469
	c-15.351,8.706-36.455,8.318-53.786,5.291c0.269,3.493,0.676,6.992,1.162,10.492c1.107,7.975,2.615,15.948,3.812,23.858
	c1.382,9.119,2.346,18.152,1.784,26.994c-0.011,0.172-0.026,0.345-0.04,0.517c-0.514,7.316-2.073,14.503-5.338,21.498
	c-1.42,3.041-2.674,6.172-3.794,9.357c-0.048,0.138-0.099,0.272-0.146,0.409C247.32,543.013,245.703,549.531,244.655,556.113z"></path>
<path id="color_x5F_1" fill="#b8e8fc" d="M198.615,339.272h0.555c-0.335,0.409-0.689,0.805-1.02,1.218
	c-0.104-0.102-0.208-0.198-0.317-0.288C198.087,339.887,198.36,339.585,198.615,339.272z M233.904,309.463
	c-6.899,3.938-13.332,8.46-19.264,13.487v0.506c5.935-5.071,12.422-9.663,19.447-13.672c6.671-3.807,13.548-6.929,20.548-9.402
	c0.093-0.174,0.198-0.34,0.299-0.509C247.723,302.403,240.684,305.593,233.904,309.463z M406.141,356.805
	c24.459,42.856,20.936,94.158-4.746,132.662c0.122,0.083,0.241,0.175,0.356,0.272c7.493-11.212,13.208-23.683,16.867-37.071
	c8.907-32.592,4.589-66.701-12.158-96.045c-3.525-6.179-7.52-11.985-11.924-17.394c-0.162,0.012-0.325,0.02-0.489,0.025
	C398.492,344.669,402.553,350.519,406.141,356.805z M310.546,293.581c-0.015,0.148-0.035,0.294-0.063,0.438
	c12.38,1.388,24.499,4.601,35.943,9.508c-0.077-0.192-0.152-0.385-0.225-0.581c-5.243-2.222-10.667-4.115-16.254-5.641
	C323.524,295.549,317.041,294.315,310.546,293.581z M170.858,410.243h-0.431c-0.636,8.606-0.382,17.208,0.745,25.699h0.428
	C170.471,427.372,170.229,418.761,170.858,410.243z M192.085,348.767c-0.129-0.07-0.256-0.148-0.381-0.232
	c-3.511,5.213-6.617,10.711-9.329,16.437h0.482C185.525,359.372,188.598,353.95,192.085,348.767z M359.302,529.179
	c14.206-8.108,26.465-18.665,36.351-31.091c-0.119-0.078-0.235-0.162-0.348-0.254c-9.697,12.221-21.827,22.831-36.185,31.024
	c-18.285,10.437-38.107,15.771-57.817,16.473c-0.01,0.148-0.02,0.298-0.03,0.448C321.443,545.059,341.272,539.469,359.302,529.179z
	 M276.687,543.8c-1.484-0.239-2.966-0.496-4.44-0.787c-0.036,0.14-0.07,0.277-0.106,0.416c1.5,0.298,3.003,0.563,4.506,0.808
	C276.658,544.089,276.674,543.945,276.687,543.8z M186.744,482.021c14.33,25.108,36.297,44.148,62.758,54.703
	c0.047-0.137,0.098-0.271,0.146-0.409c-25.535-10.218-47.923-28.79-62.583-54.477c-0.118-0.207-0.225-0.417-0.342-0.624h-0.418
	C186.455,481.481,186.592,481.755,186.744,482.021z M305.848,438.308c0.635-0.36,1.263-0.731,1.877-1.122
	c-1.34-8.377-2.553-18.272-3.357-28.703c-0.102-1.307-0.195-2.621-0.282-3.942c-0.379-5.73-0.625-11.58-0.694-17.4
	c-0.083-7.017,0.09-13.986,0.606-20.632c0.378-4.879,0.94-9.583,1.717-14.006l8.063,2.675l6.612-20.456l-10.384-5.667l-12.03-6.564
	c-1.527-1.262-3.148-2.376-4.837-3.333c-6.068-3.439-12.951-4.875-19.162-4.308c-2.094,0.191-4.119,0.586-5.999,1.24
	c-6.625,2.304-11.016,7.677-14.089,15.078c-1.454,3.502-2.616,7.453-3.575,11.758c-7.082,31.813-6.773,70.709-2.259,99.915
	c1.308,0.268,2.646,0.52,4.005,0.757C269.393,446.627,290.497,447.015,305.848,438.308z"></path>
</svg>